<?xml version="1.0" encoding="UTF-8" standalone="no"?>
<!-- Created with Inkscape (http://www.inkscape.org/) -->

<svg
   width="1521.1732"
   height="264.56693"
   viewBox="0 0 1521.1732 264.56692"
   version="1.1"
   id="svg1"
   sodipodi:docname="ramenorant.svg"
   inkscape:version="1.2.2 (732a01da63, 2022-12-09)"
   inkscape:export-filename="../src/main/resources/ramenorant.png"
   inkscape:export-xdpi="108.85715"
   inkscape:export-ydpi="108.85715"
   xml:space="preserve"
   xmlns:inkscape="http://www.inkscape.org/namespaces/inkscape"
   xmlns:sodipodi="http://sodipodi.sourceforge.net/DTD/sodipodi-0.dtd"
   xmlns="http://www.w3.org/2000/svg"
   xmlns:svg="http://www.w3.org/2000/svg"><sodipodi:namedview
     id="namedview1"
     pagecolor="#505050"
     bordercolor="#eeeeee"
     borderopacity="1"
     inkscape:showpageshadow="0"
     inkscape:pageopacity="0"
     inkscape:pagecheckerboard="0"
     inkscape:deskcolor="#d1d1d1"
     inkscape:document-units="px"
     showguides="true"
     showgrid="false"
     inkscape:zoom="0.29752593"
     inkscape:cx="1746.0663"
     inkscape:cy="1371.309"
     inkscape:window-width="2560"
     inkscape:window-height="1369"
     inkscape:window-x="-8"
     inkscape:window-y="-8"
     inkscape:window-maximized="1"
     inkscape:current-layer="text2" /><defs
     id="defs1"><inkscape:path-effect
       effect="fillet_chamfer"
       id="path-effect4"
       is_visible="true"
       lpeversion="1"
       nodesatellites_param="F,0,0,1,0,1,0,1 @ F,0,0,1,0,1,0,1 @ F,0,0,1,0,1,0,1 @ F,0,0,1,0,1,0,1 @ F,0,0,1,0,1,0,1"
       radius="1"
       unit="px"
       method="auto"
       mode="F"
       chamfer_steps="1"
       flexible="false"
       use_knot_distance="true"
       apply_no_radius="true"
       apply_with_radius="true"
       only_selected="false"
       hide_knots="false" /><inkscape:path-effect
       effect="fillet_chamfer"
       id="path-effect3"
       is_visible="true"
       lpeversion="1"
       nodesatellites_param="F,0,0,1,0,0,0,1 @ F,0,0,1,0,0,0,1 @ F,0,0,1,0,0,0,1 @ F,0,0,1,0,0,0,1 @ F,0,0,1,0,0,0,1 @ F,0,0,1,0,0,0,1"
       radius="0"
       unit="px"
       method="auto"
       mode="F"
       chamfer_steps="1"
       flexible="false"
       use_knot_distance="true"
       apply_no_radius="true"
       apply_with_radius="true"
       only_selected="false"
       hide_knots="false" /></defs><g
     inkscape:label="Layer 1"
     inkscape:groupmode="layer"
     id="layer1"
     transform="translate(0,2.3933384)"><g
       aria-label="Ramenorant "
       id="text2"
       style="font-size:198.956px;font-family:'Nikkyou Sans';-inkscape-font-specification:'Nikkyou Sans';fill:#f9f9f9;stroke:#000000;stroke-width:3.77953;stroke-linejoin:round;stroke-dasharray:none;stroke-opacity:1;paint-order:stroke markers fill"><g
         id="path1"><path
           style="color:#000000;-inkscape-font-specification:'Nikkyou Sans';fill:#000000;stroke:none;stroke-linejoin:miter;-inkscape-stroke:none"
           d="m 248.21875,56.337891 c -1.4234,0 -2.76163,0.728772 -3.72461,1.779296 a 1.889954,1.889954 0 0 0 -0.006,0.0059 c -0.71858,0.790442 -1.24897,1.452691 -1.60156,2.27539 -0.22858,0.533264 -0.40115,1.025032 -0.50391,1.539063 a 1.889954,1.889954 0 0 0 -0.0371,0.371094 V 200.0625 c 0,1.32649 0.51578,2.58888 1.32422,3.7207 a 1.889954,1.889954 0 0 0 0.0137,0.0195 c 1.0354,1.4119 2.76744,2.22852 4.53516,2.22852 h 23.60742 c 1.72079,0 3.40134,-0.8351 4.42188,-2.21484 0.8733,-1.12205 1.44922,-2.39248 1.44922,-3.75391 v -49.01563 h 18.05468 l 21.84766,49.7754 a 1.889954,1.889954 0 0 0 0.0137,0.0312 c 0.55861,1.21031 1.49511,2.24697 2.71289,3.25585 1.36083,1.19683 3.0131,1.92188 4.73633,1.92188 h 24.48047 c 0.89961,0 1.8098,-0.17724 2.60156,-0.70508 0.77583,-0.51722 1.31104,-1.36884 1.53906,-2.22851 0.41489,-1.3702 0.3803,-2.92576 -0.45507,-4.11914 l 0.18359,0.32617 -21.0918,-48.25782 h 13.14258 c 1.69467,0 3.36142,-0.7597 4.40039,-2.08203 a 1.889954,1.889954 0 0 0 0.0371,-0.0508 c 0.86637,-1.1814 1.43555,-2.46294 1.43555,-3.83789 V 62.308594 c 0,-1.36 -0.57747,-2.630766 -1.44922,-3.751953 -1.02037,-1.381091 -2.70211,-2.21875 -4.42383,-2.21875 h -23.50977 -64.99023 z m 0,3.779296 h 8.74414 64.99023 23.50977 c 0.73321,0 0.98506,0.132499 1.39063,0.685547 a 1.889954,1.889954 0 0 0 0.0371,0.05078 c 0.53685,0.683259 0.66407,1.146152 0.66407,1.455078 v 82.767576 c 0,0.3006 -0.1598,0.8316 -0.68164,1.56055 -0.37852,0.47669 -0.65322,0.63086 -1.41016,0.63086 h -16.0293 a 1.889954,1.889954 0 0 0 -1.73242,2.64648 l 22.2461,50.9043 a 1.889954,1.889954 0 0 0 0.18359,0.32812 c 0.0606,0.0866 0.15496,0.18736 -0.0605,0.87696 a 1.889954,1.889954 0 0 0 -0.0293,0.10547 c -0.0397,0.15863 -0.007,0.0625 0.008,0.0527 0.0146,-0.01 -0.11019,0.0703 -0.50586,0.0703 H 325.0625 c -0.73321,0 -1.40895,-0.244 -2.24805,-0.98437 a 1.889954,1.889954 0 0 0 -0.0488,-0.041 c -0.96262,-0.79275 -1.50609,-1.49534 -1.71875,-1.95508 -2.2e-4,-4.8e-4 -0.002,-0.001 -0.002,-0.002 L 298.7168,148.39844 a 1.889954,1.889954 0 0 0 -1.73047,-1.13086 h -21.17774 a 1.889954,1.889954 0 0 0 -1.89062,1.88867 v 50.90625 c 0,0.30892 -0.12721,0.77181 -0.66406,1.45508 a 1.889954,1.889954 0 0 0 -0.0371,0.0488 c -0.40557,0.55304 -0.6574,0.68554 -1.39063,0.68554 h -23.60742 c -0.8164,0 -1.09388,-0.15672 -1.47852,-0.67773 -0.47793,-0.67356 -0.61523,-1.15703 -0.61523,-1.51172 V 62.576172 c 0.0367,-0.149372 0.0968,-0.364007 0.23633,-0.689453 0.0358,-0.08361 0.34829,-0.586536 0.91992,-1.216797 0.46183,-0.503816 0.67702,-0.552734 0.9375,-0.552735 z m 27.58984,27.792969 a 1.889954,1.889954 0 0 0 -1.89062,1.890625 v 27.783199 a 1.889954,1.889954 0 0 0 1.89062,1.89063 h 26.32618 15.73828 a 1.889954,1.889954 0 0 0 1.88867,-1.89063 V 89.800781 a 1.889954,1.889954 0 0 0 -1.88867,-1.890625 z m 1.88868,3.78125 h 38.28515 v 24.003904 h -13.84765 -24.4375 z"
           id="path561" /><path
           style="color:#000000;-inkscape-font-specification:'Nikkyou Sans';stroke:none;stroke-linejoin:miter;-inkscape-stroke:none"
           d="m 317.8728,89.800674 h -42.06442 v 27.783896 h 26.3267 15.73772 z M 244.23577,62.30822 q 0.0971,-0.485732 0.38859,-1.165758 0.29144,-0.680025 1.2629,-1.748637 1.06861,-1.165757 2.33152,-1.165757 h 8.74318 64.991 23.50945 q 1.84578,0 2.91439,1.457197 1.06861,1.360051 1.06861,2.622955 v 82.7688 q 0,1.26291 -1.06861,2.7201 -1.06861,1.36005 -2.91439,1.36005 h -16.02917 l 22.24654,50.90476 q 0.68003,0.97147 0.19429,2.52581 -0.38858,1.55434 -2.33151,1.55434 h -24.48092 q -1.84578,0 -3.49727,-1.45719 -1.65149,-1.36006 -2.23437,-2.62296 l -22.34369,-50.90476 h -21.17793 v 50.90476 q 0,1.2629 -1.06861,2.62296 -1.06861,1.45719 -2.9144,1.45719 h -23.60659 q -1.94293,0 -3.01154,-1.45719 -0.97147,-1.36006 -0.97147,-2.62296 z"
           id="path563" /></g><g
         id="path2"><path
           style="color:#000000;-inkscape-font-specification:'Nikkyou Sans';fill:#000000;stroke:none;stroke-linejoin:miter;-inkscape-stroke:none"
           d="m 405.01367,56.533203 c -1.76772,0 -3.46792,0.741352 -4.73633,2.009766 -1.06577,1.065778 -1.85055,2.210466 -2.15625,3.535156 l -36.125,137.503905 a 1.889954,1.889954 0 0 0 -0.0137,0.0547 c -0.29754,1.28934 -0.0654,2.65443 0.5293,3.85937 0.73484,1.55634 2.50435,2.53516 4.22656,2.53516 h 24.48047 c 1.76205,0 3.4577,-0.75491 4.66992,-2.04688 1.03181,-1.03904 1.80668,-2.12952 2.1875,-3.36718 a 1.889954,1.889954 0 0 0 0.0215,-0.0723 l 3.60937,-13.65039 h 31.18945 l 3.61133,13.65039 a 1.889954,1.889954 0 0 0 0.0195,0.0723 c 0.38523,1.25199 1.16889,2.35442 2.21875,3.40429 1.25357,1.25356 2.91281,2.00977 4.64063,2.00977 h 24.48047 c 1.75407,0 3.58126,-0.99407 4.25195,-2.61523 0.56684,-1.18612 0.79517,-2.51718 0.50391,-3.7793 a 1.889954,1.889954 0 0 0 -0.0137,-0.0566 l -36.33398,-137.560549 0.0137,0.05859 c -0.30943,-1.340888 -1.13536,-2.46558 -2.23828,-3.509766 -1.21122,-1.282405 -2.89937,-2.035156 -4.6543,-2.035156 z m 0,3.779297 h 24.38281 c 0.82285,0 1.32146,0.214111 1.92188,0.857422 a 1.889954,1.889954 0 0 0 0.0918,0.0918 c 0.8041,0.750499 1.12472,1.351664 1.19726,1.666015 a 1.889954,1.889954 0 0 0 0.0137,0.05664 l 36.31836,137.501955 c 0.0885,0.38331 0.0641,0.75266 -0.23633,1.35351 a 1.889954,1.889954 0 0 0 -0.0645,0.14258 c -0.11968,0.2992 0.0514,0.26953 -0.77148,0.26953 h -24.48047 c -0.73322,0 -1.27743,-0.21493 -1.9668,-0.90429 -0.76113,-0.76114 -1.14136,-1.40408 -1.27539,-1.83594 l -3.9668,-14.99024 a 1.889954,1.889954 0 0 0 -1.82617,-1.40625 h -34.09765 a 1.889954,1.889954 0 0 0 -1.82813,1.40625 l -3.96289,14.98438 c -0.13289,0.43188 -0.51381,1.07826 -1.27734,1.8418 a 1.889954,1.889954 0 0 0 -0.0449,0.0469 c -0.60042,0.64331 -1.09902,0.85742 -1.92187,0.85742 h -24.48047 c -0.73321,0 -0.63818,0.0105 -0.81445,-0.36718 a 1.889954,1.889954 0 0 0 -0.0215,-0.0449 c -0.3,-0.60001 -0.32629,-0.96882 -0.23828,-1.35156 1.3e-4,-5.4e-4 -1.2e-4,-0.001 0,-0.002 l 36.125,-137.503908 a 1.889954,1.889954 0 0 0 0.0137,-0.05469 c 0.0829,-0.35918 0.39887,-0.963316 1.14649,-1.710937 0.67451,-0.674514 1.24161,-0.904297 2.06445,-0.904297 z m 12.24024,58.00586 a 1.889954,1.889954 0 0 0 -1.82813,1.4082 l -8.74219,33.22461 a 1.889954,1.889954 0 0 0 1.82618,2.3711 h 17.48632 a 1.889954,1.889954 0 0 0 1.82813,-2.3711 l -8.74219,-33.22461 a 1.889954,1.889954 0 0 0 -1.82812,-1.4082 z m 0,9.31445 6.29101,23.90821 h -12.58203 z"
           id="path567" /><path
           style="color:#000000;-inkscape-font-specification:'Nikkyou Sans';stroke:none;stroke-linejoin:miter;-inkscape-stroke:none"
           d="m 434.44859,62.502513 36.33278,137.559417 q 0.29144,1.2629 -0.38858,2.62296 -0.58288,1.45719 -2.52581,1.45719 h -24.48092 q -1.84578,0 -3.30298,-1.45719 -1.36005,-1.36006 -1.74863,-2.62296 l -3.98301,-15.0577 h -34.09841 l -3.98301,15.0577 q -0.38859,1.2629 -1.74864,2.62296 -1.36005,1.45719 -3.30298,1.45719 h -24.48091 q -1.84578,0 -2.52581,-1.45719 -0.68002,-1.36006 -0.38858,-2.62296 L 399.96159,62.502513 q 0.29144,-1.262904 1.65149,-2.622955 1.45719,-1.457197 3.40012,-1.457197 h 24.38377 q 1.94293,0 3.30298,1.457197 1.4572,1.360051 1.74864,2.622955 z m -8.45175,90.929107 -8.74318,-33.2241 -8.74318,33.2241 z"
           id="path569" /></g><g
         id="path3"><path
           style="color:#000000;-inkscape-font-specification:'Nikkyou Sans';fill:#000000;stroke:none;stroke-linejoin:miter;-inkscape-stroke:none"
           d="m 488.65625,56.337891 c -1.72783,0 -3.40523,0.814635 -4.48633,2.166015 a 1.889954,1.889954 0 0 0 -0.0117,0.01367 c -0.88796,1.13014 -1.47265,2.416071 -1.47265,3.791016 V 200.0625 c 0,1.36143 0.57787,2.63186 1.45117,3.75391 1.02053,1.37974 2.70109,2.21484 4.42187,2.21484 h 23.60743 c 1.75349,0 3.48032,-0.83772 4.45507,-2.27148 0.85007,-1.10901 1.41797,-2.35738 1.41797,-3.69727 v -63.66797 l 21.73242,50.04297 a 1.889954,1.889954 0 0 0 0.0176,0.0391 c 0.55965,1.21257 1.49569,2.24912 2.7168,3.25977 1.35979,1.19397 3.00953,1.91797 4.73047,1.91797 h 4.66211 c 1.75925,0 3.44748,-0.72575 4.76758,-1.95508 1.2001,-0.99945 2.1266,-2.02431 2.67968,-3.22266 a 1.889954,1.889954 0 0 0 0.0176,-0.0391 l 21.73242,-50.04297 v 63.66797 c 0,1.32649 0.51578,2.58888 1.32422,3.7207 a 1.889954,1.889954 0 0 0 0.0137,0.0195 c 1.0354,1.4119 2.76744,2.22852 4.53516,2.22852 h 23.60547 c 1.71891,0 3.39905,-0.83388 4.41992,-2.21094 0.87485,-1.12291 1.45313,-2.39495 1.45313,-3.75781 V 62.308594 c 0,-1.360885 -0.57846,-2.632187 -1.45118,-3.753907 -1.0369,-1.400717 -2.75746,-2.216796 -4.51757,-2.216796 h -25.93946 c -1.76022,0 -3.45065,0.712638 -4.82422,1.917968 -1.23555,1.022785 -2.17462,2.085262 -2.66992,3.373047 L 549.57031,125.1543 522.1582,61.560547 a 1.889954,1.889954 0 0 0 -0.0195,-0.04492 c -0.55964,-1.212558 -1.49569,-2.249113 -2.7168,-3.259766 -1.37379,-1.206012 -3.06735,-1.917968 -4.82812,-1.917968 z m 0,3.779296 h 25.9375 c 0.82284,10e-7 1.5204,0.256162 2.3457,0.984375 a 1.889954,1.889954 0 0 0 0.0488,0.04297 c 0.96262,0.792744 1.50415,1.493387 1.7168,1.953125 2.2e-4,4.88e-4 0.002,0.0015 0.002,0.002 l 29.125,67.570311 a 1.889954,1.889954 0 0 0 3.46875,0.002 l 29.24219,-67.613276 a 1.889954,1.889954 0 0 0 0.0293,-0.07227 c 0.14781,-0.384314 0.62461,-1.059772 1.57421,-1.841797 a 1.889954,1.889954 0 0 0 0.0488,-0.04297 c 0.82531,-0.728213 1.52091,-0.984375 2.34375,-0.984375 h 25.93946 c 0.82284,0 1.0969,0.154518 1.48632,0.685547 a 1.889954,1.889954 0 0 0 0.0391,0.05078 c 0.53684,0.683259 0.66406,1.146152 0.66406,1.455078 V 200.0625 c 0,0.30892 -0.12721,0.77181 -0.66406,1.45508 a 1.889954,1.889954 0 0 0 -0.0391,0.0488 c -0.40557,0.55304 -0.65741,0.68554 -1.39062,0.68554 h -23.60547 c -0.8164,0 -1.09388,-0.15672 -1.47852,-0.67773 -0.47793,-0.67356 -0.61523,-1.15703 -0.61523,-1.51172 v -72.76367 a 1.889954,1.889954 0 0 0 -3.62305,-0.75195 l -25.33984,58.34765 c -0.21265,0.45974 -0.75418,1.16038 -1.7168,1.95313 a 1.889954,1.889954 0 0 0 -0.0918,0.0801 c -0.74961,0.70275 -1.38224,0.94727 -2.20508,0.94727 h -4.66211 c -0.73323,0 -1.40896,-0.244 -2.24805,-0.98438 a 1.889954,1.889954 0 0 0 -0.0488,-0.043 c -0.96261,-0.79275 -1.50414,-1.49339 -1.71679,-1.95313 -2.3e-4,-4.9e-4 -0.002,-0.001 -0.002,-0.002 l -25.33789,-58.3457 a 1.889954,1.889954 0 0 0 -3.62304,0.75195 v 72.76367 c 0,0.30892 -0.12917,0.77181 -0.66602,1.45508 a 1.889954,1.889954 0 0 0 -0.0859,0.11914 c -0.3251,0.48765 -0.51895,0.61523 -1.34179,0.61523 h -23.60743 c -0.73321,0 -0.98505,-0.1325 -1.39062,-0.68554 a 1.889954,1.889954 0 0 0 -0.0371,-0.0488 c -0.53685,-0.68327 -0.66406,-1.14616 -0.66406,-1.45508 V 62.308594 c 0,-0.306897 0.13216,-0.76941 0.66015,-1.445313 0.47052,-0.586321 0.79871,-0.746093 1.5293,-0.746094 z"
           id="path573" /><path
           style="color:#000000;-inkscape-font-specification:'Nikkyou Sans';stroke:none;stroke-linejoin:miter;-inkscape-stroke:none"
           d="m 514.59443,58.228068 q 1.94293,0 3.59442,1.457197 1.65149,1.360051 2.23437,2.622955 l 29.14394,67.61395 29.24109,-67.61395 q 0.48573,-1.262904 2.13722,-2.622955 1.65149,-1.457197 3.59442,-1.457197 H 610.478 q 1.94293,0 3.01155,1.457197 1.06861,1.360051 1.06861,2.622955 v 137.75371 q 0,1.2629 -1.06861,2.62296 -1.06862,1.45719 -2.9144,1.45719 h -23.60659 q -1.94293,0 -3.01154,-1.45719 -0.97147,-1.36006 -0.97147,-2.62296 v -72.76271 l -25.35523,58.38503 q -0.58288,1.26291 -2.23437,2.62296 -1.55434,1.45719 -3.49727,1.45719 h -4.66303 q -1.84579,0 -3.49728,-1.45719 -1.65149,-1.36005 -2.23437,-2.62296 l -25.35523,-58.38503 v 72.76271 q 0,1.2629 -1.06861,2.62296 -0.97146,1.45719 -2.91439,1.45719 h -23.6066 q -1.84578,0 -2.91439,-1.45719 -1.06861,-1.36006 -1.06861,-2.62296 V 62.30822 q 0,-1.262904 1.06861,-2.622955 1.16575,-1.457197 3.01154,-1.457197 z"
           id="path575" /></g><g
         id="path6"><path
           style="color:#000000;-inkscape-font-specification:'Nikkyou Sans';fill:#000000;stroke:none;stroke-linejoin:miter;-inkscape-stroke:none"
           d="m 643.02148,56.337891 c -1.76772,0 -3.49976,0.818566 -4.53515,2.230468 a 1.889954,1.889954 0 0 0 -0.0137,0.01758 c -0.80844,1.131823 -1.32422,2.396169 -1.32422,3.722657 V 200.0625 c 0,1.32649 0.51578,2.58888 1.32422,3.7207 a 1.889954,1.889954 0 0 0 0.0137,0.0195 c 1.03539,1.4119 2.76743,2.22852 4.53515,2.22852 h 19.52735 23.41211 54.30468 c 1.36145,0 2.63381,-0.57785 3.75586,-1.45117 1.37841,-1.0207 2.21485,-2.70202 2.21485,-4.42188 v -23.60547 c 0,-1.75349 -0.83771,-3.48032 -2.27149,-4.45507 -1.10902,-0.85012 -2.35928,-1.41797 -3.69922,-1.41797 h -27.20117 -40.5625 v -21.96485 h 51.63672 c 1.34189,0 2.55555,-0.59203 3.66016,-1.45312 1.37768,-1.02079 2.21289,-2.70057 2.21289,-4.41992 v -23.60547 c 0,-1.75444 -0.83825,-3.48257 -2.27344,-4.45703 -1.08914,-0.83656 -2.28114,-1.41602 -3.59961,-1.41602 H 696.9375 672.50195 V 91.691406 h 67.76367 c 1.36002,0 2.63077,-0.57745 3.75196,-1.449219 1.38109,-1.020367 2.21875,-2.702104 2.21875,-4.423828 V 62.210937 c 0,-1.753495 -0.83772,-3.480319 -2.27149,-4.455078 -1.10901,-0.850098 -2.3593,-1.417968 -3.69922,-1.417968 h -27.20117 -27.10351 -34.19532 z m 0,3.779296 h 8.74414 34.19532 27.10351 27.20117 c 0.30893,0 0.77182,0.129169 1.45508,0.666016 a 1.889954,1.889954 0 0 0 0.11914,0.08594 c 0.48766,0.325104 0.61719,0.518954 0.61719,1.341796 v 23.607422 c 0,0.733215 -0.1325,0.985057 -0.68555,1.390625 a 1.889954,1.889954 0 0 0 -0.0508,0.03711 c -0.68326,0.536847 -1.14615,0.664062 -1.45508,0.664062 h -69.65429 a 1.889954,1.889954 0 0 0 -1.88867,1.890625 v 25.453129 a 1.889954,1.889954 0 0 0 1.88867,1.88867 h 26.32617 27.20117 c 0.19975,0 0.65893,0.11566 1.35938,0.66601 a 1.889954,1.889954 0 0 0 0.11914,0.0859 c 0.48766,0.32511 0.61523,0.51895 0.61523,1.3418 v 23.60547 c 0,0.73322 -0.1325,0.98505 -0.68555,1.39062 a 1.889954,1.889954 0 0 0 -0.0488,0.0391 c -0.70045,0.55035 -1.15963,0.66407 -1.35938,0.66407 h -53.52734 a 1.889954,1.889954 0 0 0 -1.88867,1.89062 v 25.74414 a 1.889954,1.889954 0 0 0 1.88867,1.88867 h 42.45312 27.20117 c 0.30893,0 0.77182,0.12917 1.45508,0.66602 a 1.889954,1.889954 0 0 0 0.11914,0.0859 c 0.48766,0.3251 0.61719,0.51895 0.61719,1.34179 v 23.60547 c 0,0.73321 -0.1325,0.98506 -0.68555,1.39063 a 1.889954,1.889954 0 0 0 -0.0508,0.0391 c -0.68326,0.53685 -1.14615,0.66406 -1.45508,0.66406 h -54.30468 -23.41211 -19.52735 c -0.81639,0 -1.09193,-0.15673 -1.47656,-0.67773 -0.47793,-0.67356 -0.61523,-1.15702 -0.61523,-1.51172 V 62.308594 c 0,-0.354707 0.13729,-0.840108 0.61523,-1.513672 0.38462,-0.520983 0.66019,-0.677734 1.47656,-0.677735 z"
           id="path579" /><path
           style="color:#000000;-inkscape-font-specification:'Nikkyou Sans';stroke:none;stroke-linejoin:miter;-inkscape-stroke:none"
           d="m 670.61169,172.56948 h 42.45302 27.20101 q 1.2629,0 2.62295,1.06861 1.4572,0.97146 1.4572,2.91439 v 23.6066 q 0,1.84578 -1.4572,2.91439 -1.36005,1.06861 -2.62295,1.06861 h -54.30488 -23.41231 -19.52644 q -1.94293,0 -3.01154,-1.45719 -0.97146,-1.36006 -0.97146,-2.62296 V 62.30822 q 0,-1.262904 0.97146,-2.622955 1.06861,-1.457197 3.01154,-1.457197 h 8.74319 34.19556 27.10387 27.20101 q 1.2629,0 2.62295,1.068611 1.4572,0.971465 1.4572,2.914394 v 23.606595 q 0,1.845784 -1.4572,2.914395 -1.36005,1.068611 -2.62295,1.068611 h -69.65403 v 25.452376 h 26.3267 27.20101 q 1.16576,0 2.52581,1.06861 1.4572,0.97147 1.4572,2.9144 v 23.60659 q 0,1.84579 -1.4572,2.9144 -1.36005,1.06861 -2.52581,1.06861 h -53.52771 z"
           id="path581" /></g><g
         id="path7"><path
           style="color:#000000;-inkscape-font-specification:'Nikkyou Sans';fill:#000000;stroke:none;stroke-linejoin:miter;-inkscape-stroke:none"
           d="m 772.90625,56.337891 c -1.72783,0 -3.40523,0.814635 -4.48633,2.166015 a 1.889954,1.889954 0 0 0 -0.01,0.01367 c -0.88797,1.13014 -1.47266,2.416071 -1.47266,3.791016 V 200.0625 c 0,1.36286 0.57827,2.6349 1.45312,3.75781 1.02087,1.37706 2.70101,2.21094 4.41993,2.21094 h 23.60547 c 1.75349,0 3.48032,-0.83772 4.45507,-2.27148 0.85009,-1.10902 1.41797,-2.35736 1.41797,-3.69727 v -71.65625 l 32.32813,72.52148 a 1.889954,1.889954 0 0 0 0.01,0.0234 c 0.55965,1.21256 1.49765,2.24912 2.71875,3.25977 1.37379,1.20601 3.06541,1.91797 4.82617,1.91797 h 24.38477 a 1.889954,1.889954 0 0 0 1.33594,-0.55274 l -0.45703,0.45508 h 2.8125 c 1.75349,0 3.48031,-0.83772 4.45507,-2.27148 0.85007,-1.10901 1.41797,-2.35738 1.41797,-3.69727 V 62.308594 c 0,-1.33989 -0.5679,-2.590219 -1.41797,-3.699219 -0.97476,-1.433767 -2.70158,-2.271484 -4.45507,-2.271484 h -23.50977 c -1.72782,0 -3.40523,0.814641 -4.48633,2.166015 a 1.889954,1.889954 0 0 0 -0.0117,0.01367 c -0.88796,1.13014 -1.47265,2.416071 -1.47265,3.791016 V 132.78906 L 809.02344,61.539062 a 1.889954,1.889954 0 0 0 -0.0117,-0.02344 c -0.55964,-1.212558 -1.49569,-2.249113 -2.7168,-3.259766 -1.37379,-1.206012 -3.0654,-1.917968 -4.82617,-1.917968 z m 0,3.779296 h 28.5625 c 0.82284,10e-7 1.51844,0.256162 2.34375,0.984375 a 1.889954,1.889954 0 0 0 0.0488,0.04297 c 0.96364,0.793585 1.50657,1.495367 1.71875,1.955078 l 35.35156,79.345701 a 1.889954,1.889954 0 0 0 3.61719,-0.76758 V 62.308594 c 0,-0.306897 0.13216,-0.76941 0.66015,-1.445313 0.47053,-0.586327 0.79872,-0.746093 1.5293,-0.746094 h 23.50977 c 0.82284,10e-7 1.01669,0.129531 1.34179,0.617188 a 1.889954,1.889954 0 0 0 0.0859,0.119141 c 0.53685,0.683259 0.66602,1.146152 0.66602,1.455078 V 200.0625 c 0,0.30892 -0.12917,0.77181 -0.66602,1.45508 a 1.889954,1.889954 0 0 0 -0.0859,0.11914 c -0.3251,0.48765 -0.51895,0.61523 -1.34179,0.61523 h -3.59571 a 1.889954,1.889954 0 0 0 -1.33593,0.55469 l 0.45703,-0.45703 h -23.60157 c -0.82284,0 -1.51844,-0.25616 -2.34375,-0.98438 a 1.889954,1.889954 0 0 0 -0.0488,-0.043 c -0.96106,-0.79146 -1.50342,-1.48945 -1.7168,-1.94922 L 802.125,118.75781 a 1.889954,1.889954 0 0 0 -3.61523,0.76953 v 80.53516 c 0,0.30892 -0.12722,0.77181 -0.66407,1.45508 a 1.889954,1.889954 0 0 0 -0.0879,0.11914 c -0.3251,0.48765 -0.51895,0.61523 -1.34179,0.61523 h -23.60547 c -0.73322,0 -0.98506,-0.1325 -1.39063,-0.68554 a 1.889954,1.889954 0 0 0 -0.0391,-0.0488 c -0.53685,-0.68327 -0.66406,-1.14616 -0.66406,-1.45508 V 62.308594 c 0,-0.306897 0.13216,-0.76941 0.66015,-1.445313 0.47052,-0.586321 0.79871,-0.746093 1.5293,-0.746094 z"
           id="path585" /><path
           style="color:#000000;-inkscape-font-specification:'Nikkyou Sans';stroke:none;stroke-linejoin:miter;-inkscape-stroke:none"
           d="m 801.46799,58.228068 q 1.94293,0 3.59442,1.457197 1.65149,1.360051 2.23437,2.622955 L 842.6581,141.6769 V 62.30822 q 0,-1.262904 1.06861,-2.622955 1.16576,-1.457197 3.01154,-1.457197 h 23.50945 q 1.94293,0 2.9144,1.457197 1.06861,1.360051 1.06861,2.622955 v 137.75371 q 0,1.2629 -1.06861,2.62296 -0.97147,1.45719 -2.9144,1.45719 h -3.59442 l -0.0971,0.0971 h -24.38377 q -1.94293,0 -3.59442,-1.4572 -1.65149,-1.36005 -2.23437,-2.62295 l -35.9442,-80.63158 v 80.53443 q 0,1.2629 -1.06861,2.62296 -0.97146,1.45719 -2.91439,1.45719 h -23.6066 q -1.84578,0 -2.91439,-1.45719 -1.06861,-1.36006 -1.06861,-2.62296 V 62.30822 q 0,-1.262904 1.06861,-2.622955 1.16575,-1.457197 3.01154,-1.457197 z"
           id="path587" /></g><g
         id="path8"><path
           style="color:#000000;-inkscape-font-specification:'Nikkyou Sans';fill:#000000;stroke:none;stroke-linejoin:miter;-inkscape-stroke:none"
           d="m 902.59766,56.337891 c -1.76773,0 -3.49977,0.818566 -4.53516,2.230468 a 1.889954,1.889954 0 0 0 -0.0137,0.01758 c -0.80844,1.131823 -1.32422,2.396169 -1.32422,3.722657 V 200.0625 c 0,1.32649 0.51578,2.58888 1.32422,3.7207 a 1.889954,1.889954 0 0 0 0.0137,0.0195 c 1.0354,1.4119 2.76743,2.22852 4.53516,2.22852 h 8.74218 39.24805 39.53906 19.52535 c 1.719,0 3.3991,-0.83387 4.42,-2.21094 0.8748,-1.12291 1.4531,-2.39495 1.4531,-3.75781 V 62.308594 c 0,-1.361431 -0.5779,-2.633809 -1.4512,-3.75586 -1.0207,-1.378416 -2.702,-2.214843 -4.4219,-2.214843 h -8.7421 -39.73247 -39.73437 z m 0,3.779296 h 18.8457 39.73437 39.73247 8.7421 c 0.7333,0 0.9851,0.132508 1.3907,0.685547 a 1.889954,1.889954 0 0 0 0.039,0.05078 c 0.5369,0.683259 0.6641,1.146147 0.6641,1.455078 V 200.0625 c 0,0.30893 -0.1272,0.77181 -0.6641,1.45508 a 1.889954,1.889954 0 0 0 -0.039,0.0488 c -0.4056,0.55303 -0.6574,0.68554 -1.3907,0.68554 h -19.52535 -39.53906 -39.24805 -8.74218 c -0.81641,0 -1.09389,-0.15672 -1.47852,-0.67773 -0.47793,-0.67356 -0.61523,-1.15702 -0.61523,-1.51172 V 62.308594 c 0,-0.354707 0.13729,-0.840108 0.61523,-1.513672 0.38463,-0.521 0.66213,-0.677734 1.47852,-0.677735 z m 27.58984,27.792969 a 1.889954,1.889954 0 0 0 -1.89063,1.890625 v 82.769529 a 1.889954,1.889954 0 0 0 1.89063,1.88867 h 51.875 a 1.889954,1.889954 0 0 0 1.89062,-1.88867 V 89.800781 a 1.889954,1.889954 0 0 0 -1.89062,-1.890625 z m 1.88867,3.78125 h 48.09766 v 78.988284 h -48.09766 z"
           id="path591" /><path
           style="color:#000000;-inkscape-font-specification:'Nikkyou Sans';stroke:none;stroke-linejoin:miter;-inkscape-stroke:none"
           d="m 1013.6359,62.30822 v 137.75371 q 0,1.2629 -1.0686,2.62296 -1.0686,1.45719 -2.9144,1.45719 h -19.52642 q -11.65758,0 -39.53862,0 -27.88104,0 -39.24718,0 h -8.74318 q -1.94293,0 -3.01154,-1.45719 -0.97146,-1.36006 -0.97146,-2.62296 V 62.30822 q 0,-1.262904 0.97146,-2.622955 1.06861,-1.457197 3.01154,-1.457197 h 18.84642 q 11.65758,0 39.73291,0 28.07533,0 39.73287,0 h 8.7432 q 1.8458,0 2.9144,1.457197 1.0686,1.360051 1.0686,2.622955 z M 982.06332,172.56948 V 89.800674 H 930.1871 v 82.768806 z"
           id="path593" /></g><g
         id="path9"><path
           style="color:#000000;-inkscape-font-specification:'Nikkyou Sans';fill:#000000;stroke:none;stroke-linejoin:miter;-inkscape-stroke:none"
           d="m 1042.0996,56.337891 c -1.4234,0 -2.7616,0.72877 -3.7246,1.779296 a 1.889954,1.889954 0 0 0 -0.01,0.0059 c -0.7186,0.790453 -1.2489,1.452593 -1.6015,2.27539 h 0 c -0.2287,0.533378 -0.4031,1.024704 -0.5058,1.539063 a 1.889954,1.889954 0 0 0 -0.037,0.371094 V 200.0625 c 0,1.32651 0.5157,2.58888 1.3242,3.7207 a 1.889954,1.889954 0 0 0 0.014,0.0195 c 1.0353,1.4119 2.7674,2.22852 4.5351,2.22852 h 23.6074 c 1.7208,0 3.4014,-0.8351 4.4219,-2.21484 0.8733,-1.12205 1.4512,-2.39249 1.4512,-3.75391 v -49.01563 h 18.0527 l 21.8477,49.7754 a 1.889954,1.889954 0 0 0 0.016,0.0312 c 0.5586,1.21029 1.4931,2.24697 2.7109,3.25585 1.3609,1.19683 3.0131,1.92188 4.7364,1.92188 h 24.4804 c 0.8996,0 1.8098,-0.17724 2.6016,-0.70508 0.7758,-0.51722 1.311,-1.36885 1.5391,-2.22851 0.4148,-1.37019 0.3802,-2.92577 -0.4551,-4.11914 l 0.1836,0.32617 -21.0899,-48.25782 h 13.1407 c 1.6946,0 3.3614,-0.75969 4.4003,-2.08203 a 1.889954,1.889954 0 0 0 0.037,-0.0508 c 0.8664,-1.1814 1.4355,-2.4629 1.4355,-3.83789 V 62.308594 c 0,-1.360045 -0.5774,-2.630769 -1.4492,-3.751953 -1.0204,-1.381099 -2.7021,-2.21875 -4.4238,-2.21875 h -23.5098 -64.9902 z m 0,3.779296 h 8.7442 64.9902 23.5098 c 0.7332,0 0.985,0.132508 1.3906,0.685547 a 1.889954,1.889954 0 0 0 0.037,0.05078 c 0.5369,0.683262 0.666,1.146197 0.666,1.455078 v 82.767576 c 0,0.30056 -0.1617,0.83159 -0.6836,1.56055 -0.3785,0.47668 -0.6532,0.63086 -1.4101,0.63086 h -16.0293 a 1.889954,1.889954 0 0 0 -1.7325,2.64648 l 22.2481,50.9043 a 1.889954,1.889954 0 0 0 0.1816,0.32812 c 0.061,0.0866 0.155,0.18735 -0.061,0.87696 a 1.889954,1.889954 0 0 0 -0.029,0.10547 c -0.04,0.15864 -0.01,0.0625 0.01,0.0527 0.015,-0.01 -0.1102,0.0703 -0.5059,0.0703 h -24.4804 c -0.7333,0 -1.409,-0.244 -2.2481,-0.98437 a 1.889954,1.889954 0 0 0 -0.049,-0.041 c -0.9637,-0.79359 -1.5066,-1.49731 -1.7188,-1.95703 l -22.33,-50.87109 a 1.889954,1.889954 0 0 0 -1.7305,-1.13086 h -21.1777 a 1.889954,1.889954 0 0 0 -1.8907,1.88867 v 50.90625 c 0,0.30893 -0.1272,0.77181 -0.664,1.45508 a 1.889954,1.889954 0 0 0 -0.037,0.0488 c -0.4056,0.55303 -0.6574,0.68554 -1.3907,0.68554 h -23.6074 c -0.8142,0 -1.0935,-0.15607 -1.4766,-0.67383 -0.4805,-0.67591 -0.6171,-1.16015 -0.6171,-1.51562 V 62.576172 c 0.037,-0.149122 0.097,-0.364107 0.2363,-0.689453 0.036,-0.0836 0.3471,-0.58564 0.9199,-1.216797 l 0,-0.002 c 0.4595,-0.50035 0.6757,-0.550781 0.9355,-0.550782 z m 27.5899,27.792969 a 1.889954,1.889954 0 0 0 -1.8907,1.890625 v 27.783199 a 1.889954,1.889954 0 0 0 1.8907,1.89063 h 26.3261 15.7383 a 1.889954,1.889954 0 0 0 1.8906,-1.89063 V 89.800781 a 1.889954,1.889954 0 0 0 -1.8906,-1.890625 z m 1.8906,3.78125 h 38.2832 v 24.003904 h -13.8477 -24.4355 z"
           id="path597" /><path
           style="color:#000000;-inkscape-font-specification:'Nikkyou Sans';stroke:none;stroke-linejoin:miter;-inkscape-stroke:none"
           d="m 1111.7538,89.800674 h -42.0644 v 27.783896 h 26.3267 15.7377 z m -73.637,-27.492454 q 0.097,-0.485732 0.3886,-1.165758 0.2914,-0.680025 1.2629,-1.748637 1.0686,-1.165757 2.3315,-1.165757 h 8.7432 64.991 23.5094 q 1.8458,0 2.9144,1.457197 1.0687,1.360051 1.0687,2.622955 v 82.7688 q 0,1.26291 -1.0687,2.7201 -1.0686,1.36005 -2.9144,1.36005 h -16.0291 l 22.2465,50.90476 q 0.68,0.97147 0.1943,2.52581 -0.3886,1.55434 -2.3315,1.55434 h -24.4809 q -1.8458,0 -3.4973,-1.45719 -1.6515,-1.36006 -2.2344,-2.62296 l -22.3436,-50.90476 h -21.178 v 50.90476 q 0,1.2629 -1.0686,2.62296 -1.0686,1.45719 -2.9144,1.45719 h -23.6066 q -1.9429,0 -3.0115,-1.45719 -0.9715,-1.36006 -0.9715,-2.62296 z"
           id="path599" /></g><g
         id="path10"><path
           style="color:#000000;-inkscape-font-specification:'Nikkyou Sans';fill:#000000;stroke:none;stroke-linejoin:miter;-inkscape-stroke:none"
           d="m 1198.8945,56.533203 c -1.7677,0 -3.4679,0.741345 -4.7363,2.009766 -1.0657,1.06577 -1.8505,2.210534 -2.1562,3.535156 l -36.125,137.503905 a 1.889954,1.889954 0 0 0 -0.014,0.0547 c -0.2976,1.28934 -0.065,2.65441 0.5293,3.85937 0.7349,1.55629 2.5044,2.53516 4.2265,2.53516 h 24.4805 c 1.762,0 3.4577,-0.75489 4.6699,-2.04688 1.0319,-1.03904 1.8067,-2.12951 2.1875,-3.36718 a 1.889954,1.889954 0 0 0 0.021,-0.0723 l 3.6113,-13.65039 h 31.1875 l 3.6114,13.65039 a 1.889954,1.889954 0 0 0 0.022,0.0723 c 0.3852,1.25195 1.1669,2.35442 2.2168,3.40429 1.2535,1.25356 2.9127,2.00977 4.6406,2.00977 h 24.4804 c 1.7527,0 3.58,-0.99246 4.252,-2.61133 0.5681,-1.18698 0.7955,-2.51983 0.5039,-3.7832 a 1.889954,1.889954 0 0 0 -0.014,-0.0566 L 1230.1719,62.078125 c -0.3094,-1.340935 -1.1373,-2.465562 -2.2403,-3.509766 -1.2112,-1.282433 -2.8993,-2.035156 -4.6543,-2.035156 z m 0,3.779297 h 24.3828 c 0.823,0 1.3215,0.214139 1.9219,0.857422 a 1.889954,1.889954 0 0 0 0.092,0.0918 c 0.8041,0.750493 1.1248,1.351695 1.1973,1.666015 a 1.889954,1.889954 0 0 0 0.014,0.05664 l 36.3183,137.501955 c 0.088,0.38326 0.064,0.75268 -0.2363,1.35351 a 1.889954,1.889954 0 0 0 -0.064,0.14258 c -0.1196,0.29914 0.051,0.26953 -0.7715,0.26953 h -24.4804 c -0.7333,0 -1.2775,-0.21494 -1.9668,-0.90429 -0.76,-0.76043 -1.1415,-1.40435 -1.2754,-1.83594 l -3.9668,-14.99024 a 1.889954,1.889954 0 0 0 -1.8262,-1.40625 h -34.0976 a 1.889954,1.889954 0 0 0 -1.8282,1.40625 l -3.9648,14.99024 c -0.134,0.43186 -0.5142,1.07479 -1.2754,1.83594 a 1.889954,1.889954 0 0 0 -0.045,0.0469 c -0.6004,0.6433 -1.0991,0.85742 -1.9219,0.85742 h -24.4805 c -0.7331,0 -0.6381,0.0106 -0.8144,-0.36718 a 1.889954,1.889954 0 0 0 -0.021,-0.0449 c -0.3,-0.59999 -0.3263,-0.96883 -0.2383,-1.35156 10e-5,-5.4e-4 -1e-4,-0.001 0,-0.002 l 36.125,-137.503908 a 1.889954,1.889954 0 0 0 0.014,-0.05469 c 0.083,-0.358965 0.4001,-0.964121 1.1465,-1.710937 0.6745,-0.674506 1.2415,-0.904297 2.0644,-0.904297 z m 12.2403,58.00586 a 1.889954,1.889954 0 0 0 -1.8282,1.4082 l -8.7421,33.22461 a 1.889954,1.889954 0 0 0 1.8261,2.3711 h 17.4864 a 1.889954,1.889954 0 0 0 1.8281,-2.3711 l -8.7422,-33.22461 a 1.889954,1.889954 0 0 0 -1.8281,-1.4082 z m 0,9.31445 6.291,23.90821 h -12.582 z"
           id="path603" /><path
           style="color:#000000;-inkscape-font-specification:'Nikkyou Sans';stroke:none;stroke-linejoin:miter;-inkscape-stroke:none"
           d="m 1228.3296,62.502513 36.3328,137.559417 q 0.2915,1.2629 -0.3886,2.62296 -0.5828,1.45719 -2.5258,1.45719 h -24.4809 q -1.8458,0 -3.303,-1.45719 -1.36,-1.36006 -1.7486,-2.62296 l -3.983,-15.0577 h -34.0984 l -3.983,15.0577 q -0.3886,1.2629 -1.7487,2.62296 -1.36,1.45719 -3.3029,1.45719 h -24.481 q -1.8457,0 -2.5258,-1.45719 -0.68,-1.36006 -0.3885,-2.62296 l 36.1384,-137.559417 q 0.2915,-1.262904 1.6515,-2.622955 1.4572,-1.457197 3.4002,-1.457197 h 24.3837 q 1.943,0 3.303,1.457197 1.4572,1.360051 1.7486,2.622955 z m -8.4517,90.929107 -8.7432,-33.2241 -8.7432,33.2241 z"
           id="path605" /></g><g
         id="path11"><path
           style="color:#000000;-inkscape-font-specification:'Nikkyou Sans';fill:#000000;stroke:none;stroke-linejoin:miter;-inkscape-stroke:none"
           d="m 1282.5371,56.337891 c -1.7278,0 -3.4052,0.814652 -4.4863,2.166015 a 1.889954,1.889954 0 0 0 -0.012,0.01367 c -0.888,1.13014 -1.4707,2.416076 -1.4707,3.791016 V 200.0625 c 0,1.36142 0.5759,2.63186 1.4492,3.75391 1.0205,1.37974 2.7011,2.21484 4.4219,2.21484 h 23.6074 c 1.7535,0 3.4803,-0.83774 4.4551,-2.27148 0.85,-1.10901 1.4179,-2.35739 1.4179,-3.69727 v -71.65625 l 32.3281,72.52148 a 1.889954,1.889954 0 0 0 0.01,0.0234 c 0.5597,1.21255 1.4977,2.24912 2.7188,3.25977 1.3738,1.20601 3.0654,1.91797 4.8261,1.91797 h 24.3848 a 1.889954,1.889954 0 0 0 1.3359,-0.55469 l -0.457,0.45703 h 2.8125 c 1.7535,0 3.4804,-0.83766 4.4551,-2.27148 0.85,-1.10901 1.416,-2.35739 1.416,-3.69727 V 62.308594 c 0,-1.339886 -0.566,-2.590219 -1.416,-3.699219 -0.9747,-1.433828 -2.7016,-2.271484 -4.4551,-2.271484 h -23.5098 c -1.7278,0 -3.4071,0.814652 -4.4882,2.166015 a 1.889954,1.889954 0 0 0 -0.01,0.01367 c -0.888,1.13014 -1.4727,2.416076 -1.4727,3.791016 v 70.480466 l -31.7441,-71.249998 a 1.889954,1.889954 0 0 0 -0.012,-0.02344 c -0.5597,-1.212547 -1.4957,-2.249116 -2.7168,-3.259766 -1.3738,-1.206042 -3.0673,-1.917968 -4.8281,-1.917968 z m 0,3.779296 h 28.5606 c 0.8229,10e-7 1.5204,0.256194 2.3457,0.984375 a 1.889954,1.889954 0 0 0 0.049,0.04297 c 0.9636,0.793587 1.5066,1.495356 1.7187,1.955078 l 35.3516,79.345701 a 1.889954,1.889954 0 0 0 3.6152,-0.76758 V 62.308594 c 0,-0.307246 0.1327,-0.770119 0.6621,-1.447266 0.4694,-0.584125 0.7999,-0.74414 1.5293,-0.744141 h 23.5098 c 0.8229,10e-7 1.0168,0.12958 1.3418,0.617188 a 1.889954,1.889954 0 0 0 0.086,0.119141 c 0.5369,0.683259 0.6641,1.146147 0.6641,1.455078 V 200.0625 c 0,0.30893 -0.1272,0.77181 -0.6641,1.45508 a 1.889954,1.889954 0 0 0 -0.086,0.11914 c -0.325,0.4876 -0.5189,0.61523 -1.3418,0.61523 h -3.5957 a 1.889954,1.889954 0 0 0 -1.3359,0.55469 l 0.457,-0.45703 h -23.6016 c -0.8228,0 -1.5184,-0.25615 -2.3437,-0.98438 a 1.889954,1.889954 0 0 0 -0.049,-0.043 c -0.9637,-0.79359 -1.5086,-1.49536 -1.7207,-1.95508 l -35.9336,-80.60938 a 1.889954,1.889954 0 0 0 -3.6153,0.76953 v 80.53516 c 0,0.30893 -0.1291,0.77181 -0.666,1.45508 a 1.889954,1.889954 0 0 0 -0.086,0.11914 c -0.3252,0.48767 -0.519,0.61523 -1.3418,0.61523 h -23.6074 c -0.7333,0 -0.9832,-0.13251 -1.3887,-0.68554 a 1.889954,1.889954 0 0 0 -0.039,-0.0488 c -0.5368,-0.68327 -0.664,-1.14615 -0.664,-1.45508 V 62.308594 c 0,-0.306902 0.1321,-0.76941 0.6601,-1.445313 0.4706,-0.586338 0.7987,-0.746093 1.5293,-0.746094 z"
           id="path609" /><path
           style="color:#000000;-inkscape-font-specification:'Nikkyou Sans';stroke:none;stroke-linejoin:miter;-inkscape-stroke:none"
           d="m 1311.0984,58.228068 q 1.943,0 3.5944,1.457197 1.6515,1.360051 2.2344,2.622955 l 35.3613,79.36868 V 62.30822 q 0,-1.262904 1.0686,-2.622955 1.1658,-1.457197 3.0116,-1.457197 h 23.5094 q 1.943,0 2.9144,1.457197 1.0686,1.360051 1.0686,2.622955 v 137.75371 q 0,1.2629 -1.0686,2.62296 -0.9714,1.45719 -2.9144,1.45719 h -3.5944 l -0.097,0.0971 h -24.3838 q -1.9429,0 -3.5944,-1.4572 -1.6515,-1.36005 -2.2344,-2.62295 l -35.9442,-80.63158 v 80.53443 q 0,1.2629 -1.0686,2.62296 -0.9715,1.45719 -2.9144,1.45719 h -23.6066 q -1.8458,0 -2.9144,-1.45719 -1.0686,-1.36006 -1.0686,-2.62296 V 62.30822 q 0,-1.262904 1.0686,-2.622955 1.1658,-1.457197 3.0116,-1.457197 z"
           id="path611" /></g><g
         id="path12"><path
           style="color:#000000;-inkscape-font-specification:'Nikkyou Sans';fill:#000000;stroke:none;stroke-linejoin:miter;-inkscape-stroke:none"
           d="m 1412.3242,56.337891 c -1.3707,0 -2.6458,0.567836 -3.8242,1.429687 -1.3865,0.99486 -2.1445,2.710477 -2.1445,4.443359 v 23.607422 c 0,1.694691 0.7596,3.361428 2.082,4.400391 a 1.889954,1.889954 0 0 0 0.051,0.03711 c 1.1814,0.866363 2.461,1.435547 3.8359,1.435547 h 33.7637 V 200.0625 c 0,1.32651 0.5157,2.58888 1.3242,3.7207 a 1.889954,1.889954 0 0 0 0.014,0.0195 c 1.0354,1.4119 2.7674,2.22852 4.5351,2.22852 h 23.6075 c 1.7189,0 3.3971,-0.83387 4.4179,-2.21094 0.8749,-1.12291 1.4532,-2.39495 1.4532,-3.75781 V 91.691406 h 33.7636 c 1.36,0 2.6308,-0.577462 3.752,-1.449219 1.3811,-1.020367 2.2187,-2.702104 2.2187,-4.423828 V 62.210937 c 0,-1.753495 -0.8377,-3.480319 -2.2715,-4.455078 -1.109,-0.850086 -2.3593,-1.417968 -3.6992,-1.417968 h -51.4883 z m 0,3.779296 h 51.3906 51.4883 c 0.3089,0 0.7718,0.129157 1.4551,0.666016 a 1.889954,1.889954 0 0 0 0.1191,0.08594 c 0.4877,0.325104 0.6172,0.518954 0.6172,1.341796 v 23.607422 c 0,0.733215 -0.1325,0.985057 -0.6855,1.390625 a 1.889954,1.889954 0 0 0 -0.051,0.03711 c -0.6833,0.536859 -1.1462,0.664062 -1.4551,0.664062 h -35.6523 a 1.889954,1.889954 0 0 0 -1.8906,1.890625 V 200.0625 c 0,0.30893 -0.1273,0.77181 -0.6641,1.45508 a 1.889954,1.889954 0 0 0 -0.039,0.0488 c -0.4055,0.55303 -0.6554,0.68554 -1.3886,0.68554 h -23.6075 c -0.8163,0 -1.0938,-0.15672 -1.4785,-0.67773 -0.4779,-0.67356 -0.6152,-1.15704 -0.6152,-1.51172 V 89.800781 a 1.889954,1.889954 0 0 0 -1.8887,-1.890625 h -35.6543 c -0.3006,0 -0.8297,-0.159829 -1.5586,-0.68164 -0.4767,-0.378531 -0.6308,-0.653229 -0.6308,-1.410157 V 62.210937 c 0,-0.854323 0.1465,-1.075641 0.5683,-1.376953 a 1.889954,1.889954 0 0 0 0.02,-0.01367 c 0.7615,-0.55845 1.2926,-0.703124 1.6015,-0.703125 z"
           id="path615" /><path
           style="color:#000000;-inkscape-font-specification:'Nikkyou Sans';stroke:none;stroke-linejoin:miter;-inkscape-stroke:none"
           d="m 1447.9778,89.800674 h -35.6527 q -1.2629,0 -2.7201,-1.068611 -1.3601,-1.068611 -1.3601,-2.914395 V 62.211073 q 0,-1.942929 1.3601,-2.914394 1.4572,-1.068611 2.7201,-1.068611 h 51.3905 51.4876 q 1.2629,0 2.623,1.068611 1.4572,0.971465 1.4572,2.914394 v 23.606595 q 0,1.845784 -1.4572,2.914395 -1.3601,1.068611 -2.623,1.068611 h -35.6528 V 200.06193 q 0,1.2629 -1.0686,2.62296 -1.0686,1.45719 -2.9144,1.45719 h -23.6066 q -1.9429,0 -3.0115,-1.45719 -0.9715,-1.36006 -0.9715,-2.62296 z"
           id="path617" /></g></g><g
       id="g11"
       transform="matrix(3.8491684,0,0,3.8491684,-302.1892,-168.0208)"><g
         id="g10"
         inkscape:label="g10"><g
           id="path4-8"
           inkscape:label="path4"><path
             style="color:#000000;fill:#ffffff;stroke-linejoin:round;-inkscape-stroke:none;paint-order:stroke markers fill"
             d="m 104.27148,43.03125 c -0.90543,0.02942 -1.80274,0.28121 -2.61132,0.748047 L 81.300781,55.533203 c -1.728785,0.998126 -2.792969,2.844245 -2.792969,4.839844 v 11.753906 14.691406 a 0.50005,0.50005 0 0 0 0.25,0.431641 l 25.445318,14.69141 a 0.50005,0.50005 0 0 0 0.5,0 L 130.14844,87.25 a 0.50005,0.50005 0 0 0 0.25,-0.431641 V 72.126953 60.373047 c 0,-1.995597 -1.06222,-3.841718 -2.79102,-4.839844 L 107.24609,43.779297 c -0.86363,-0.498625 -1.82768,-0.748047 -2.79296,-0.748047 -0.044,0 -0.10458,-0.0025 -0.18165,0 z m 0.0312,0.998047 c 0.0327,-0.0011 0.0846,0.002 0.1504,0.002 0.79201,0 1.582,0.204756 2.29296,0.615234 l 20.36133,11.751953 c 1.42042,0.820083 2.29102,2.333822 2.29102,3.97461 V 72.126953 86.529297 L 104.45313,100.93164 79.507812,86.529297 V 72.126953 60.373047 c 0,-1.640786 0.87256,-3.154527 2.292969,-3.97461 L 102.16016,44.646484 c 0.66761,-0.385446 1.40173,-0.593112 2.14257,-0.617187 z m 0.1504,1.951172 c -1.0816,5e-6 -1.96875,0.887158 -1.96875,1.96875 -1e-5,1.081592 0.88715,1.968745 1.96875,1.96875 1.08159,2e-6 1.96875,-0.887153 1.96875,-1.96875 -1e-5,-1.081597 -0.88716,-1.968753 -1.96875,-1.96875 z m 0,1 c 0.54115,-2e-6 0.96874,0.427593 0.96875,0.96875 0,0.541156 -0.4276,0.968751 -0.96875,0.96875 -0.54116,-3e-6 -0.96876,-0.427596 -0.96875,-0.96875 0,-0.541154 0.42759,-0.968748 0.96875,-0.96875 z"
             id="path661" /><path
             style="color:#000000;fill:#000000;stroke-linejoin:round;-inkscape-stroke:none;paint-order:stroke markers fill"
             d="m 104.28697,43.530344 c -0.82314,0.02675 -1.63776,0.256773 -2.37586,0.682915 L 81.549938,55.966271 c -1.574599,0.909105 -2.542278,2.589185 -2.542278,4.407379 v 11.753012 14.691264 l 25.44573,14.691264 25.44573,-14.691264 V 72.126662 60.37365 c 0,-1.818194 -0.96767,-3.498274 -2.54228,-4.407379 L 106.99567,44.213259 c -0.7873,-0.454552 -1.66363,-0.682915 -2.54228,-0.682915 -0.0549,0 -0.11154,-0.0018 -0.16642,0 z m 0.16642,2.949731 a 1.4691266,1.4691266 0 0 1 1.46913,1.469126 1.4691266,1.4691266 0 0 1 -1.46913,1.469127 1.4691266,1.4691266 0 0 1 -1.46912,-1.469127 1.4691266,1.4691266 0 0 1 1.46912,-1.469126 z"
             id="path663" /></g><g
           id="path5-0"
           inkscape:label="path5"><path
             style="color:#000000;fill:#ffffff;stroke-linejoin:round;-inkscape-stroke:none;paint-order:stroke markers fill"
             d="m 78.757812,86.382812 a 0.50005,0.50005 0 0 0 -0.25,0.433594 v 9.601563 a 0.50005,0.50005 0 0 0 0.248047,0.433593 l 25.445311,14.843748 a 0.50005,0.50005 0 0 0 0.50391,0 l 25.44531,-14.843748 a 0.50005,0.50005 0 0 0 0.24805,-0.433593 v -9.59961 a 0.50005,0.50005 0 0 0 -0.75,-0.433593 L 104.45313,100.93164 79.257812,86.382812 a 0.50005,0.50005 0 0 0 -0.5,0 z m 0.75,1.300782 24.695318,14.257816 a 0.50005,0.50005 0 0 0 0.5,0 l 24.69531,-14.257816 v 8.447265 L 104.45313,110.68359 79.507812,96.130859 Z"
             id="path667" /><path
             style="color:#000000;fill:#ff4354;stroke-linejoin:round;-inkscape-stroke:none;paint-order:stroke markers fill"
             d="m 79.00766,86.816691 v 9.602208 l 25.44573,14.844051 25.44573,-14.844051 v -9.600973 l -25.44573,14.691264 z"
             id="path669" /></g></g><g
         id="g9"><path
           style="fill:#490400;stroke-width:1.05833;stroke-linejoin:round;paint-order:stroke markers fill"
           d="m 96.372217,85.90852 c -0.0036,1.092736 2.299035,2.109615 8.145703,2.153274 6.31216,-0.109407 7.87081,-1.152369 8.0692,-2.09314 -0.13217,-2.036019 -4.96525,-1.54078 -8.1147,-1.952114 -4.500028,-0.145794 -7.92558,0.171912 -8.100203,1.89198 z"
           id="path6-2"
           sodipodi:nodetypes="ccccc"
           inkscape:label="path6" /><path
           style="fill:#f9f9f9;stroke-width:1.05833;stroke-linejoin:round;paint-order:stroke markers fill"
           d="m 87.763082,72.364073 c 3.004205,19.162871 31.121778,17.290339 33.418668,0.03162 -6.7122,3.081651 -20.18683,6.086274 -33.418668,-0.03162 z"
           id="path2-4"
           sodipodi:nodetypes="ccc" /><path
           style="fill:#490400;stroke-width:1.05833;stroke-linejoin:round;paint-order:stroke markers fill"
           d="m 106.70131,64.79745 c 0.69531,0.289497 1.36476,0.229935 2.03043,0.119415 l 4.31411,-9.046524 c 0.26071,-0.496415 0.33719,-0.830102 -0.066,-1.024495 l -1.24894,-0.550621 c -0.40316,-0.183609 -0.64591,-0.09872 -0.77904,0.188043 z"
           id="path8-8"
           sodipodi:nodetypes="ccccccc" /><path
           id="path95"
           style="fill:#490400;stroke-width:5.20782;stroke-linejoin:round;paint-order:stroke markers fill"
           transform="translate(1.2083334e-6)"
           d="m 122.29123,70.424805 a 17.800591,5.6712589 0 0 1 -17.80059,5.671259 17.800591,5.6712589 0 0 1 -17.800592,-5.671259 17.800591,5.6712589 0 0 1 17.800592,-5.671259 17.800591,5.6712589 0 0 1 17.80059,5.671259 z" /><path
           id="path94"
           style="fill:#ffffff;stroke-width:2.01719;stroke-linejoin:round;paint-order:stroke markers fill"
           transform="translate(1.2083334e-6)"
           d="m 121.35772,70.413177 a 16.872351,4.7626953 0 0 1 -16.87235,4.762696 16.872351,4.7626953 0 0 1 -16.872354,-4.762696 16.872351,4.7626953 0 0 1 16.872354,-4.762695 16.872351,4.7626953 0 0 1 16.87235,4.762695 z" /><path
           id="path93"
           style="fill:#490400;stroke-width:2.34638;stroke-linejoin:round;paint-order:stroke markers fill"
           transform="translate(1.2083334e-6)"
           d="m 120.35996,70.409897 a 15.838567,4.1423736 0 0 1 -15.83857,4.142373 15.838567,4.1423736 0 0 1 -15.838564,-4.142373 15.838567,4.1423736 0 0 1 15.838564,-4.142374 15.838567,4.1423736 0 0 1 15.83857,4.142374 z" /><path
           id="path92"
           style="fill:#ffd404;stroke-width:1.05833;stroke-linejoin:round;paint-order:stroke markers fill"
           d="m 97.901617,68.384629 c -0.130967,-0.278338 -0.31011,-0.52777 -0.516642,-0.760769 0.68246,-0.110457 1.326807,-0.157393 1.964376,-0.193032 -0.458503,0.26168 -0.655267,0.347088 -1.447734,0.953801 z m -2.312595,2.887511 c 0.594259,-1.163678 1.080697,-1.626526 1.58511,-2.206204 -0.178277,-0.554536 -0.550102,-0.963911 -1.041931,-1.283283 -0.667362,0.114472 -1.335248,0.228158 -1.972018,0.388517 0.896071,1.156523 1.160591,2.128201 1.428839,3.10097 z m -2.465209,1.131629 1.693624,0.375144 c -0.09068,-1.330603 -0.23755,-2.676448 -1.696653,-4.37815 -0.499354,0.147516 -0.998961,0.302228 -1.585944,0.522768 0.603204,0.767653 1.214204,1.521457 1.588973,3.480238 z M 92.12271,72.110155 c -2.242161,-0.771764 -3.681664,-1.604672 -1.520356,-2.799551 0.533499,0.536732 1.248737,1.378014 1.520356,2.799551 z m 3.740612,0.857655 c 0.63956,0.142985 1.113708,0.182587 1.584456,0.220064 0.813213,-2.075289 2.555272,-4.27997 6.225352,-4.816943 -0.41726,-0.273945 -0.94873,-0.55768 -1.99035,-0.885143 -3.190747,0.974435 -4.8963,2.961503 -5.819458,5.482022 z m 9.819598,-5.751577 c -0.76098,-0.01654 -1.46405,-0.01137 -2.10587,0.01677 0.53618,0.303962 1.04954,0.554686 1.67017,1.055715 z m 1.92621,0.08097 -0.91564,1.937732 2.20036,-1.873851 c -0.52561,-0.07841 -0.96677,-0.0977 -1.28472,-0.06388 z m 0.61042,2.86462 3.35175,-2.531721 c 1.06324,0.110731 1.83021,0.270839 2.65114,0.421954 -0.92446,0.144298 -2.93309,0.352969 -6.00289,2.109767 z m -9.799713,3.154661 c 0.732708,0.08195 1.37095,0.116673 1.997653,0.145624 1.26867,-1.661411 3.4303,-2.865227 5.77613,-2.922733 -0.35577,-0.495052 -0.75291,-0.940459 -1.24269,-1.274694 -3.7097,-0.06469 -5.660813,2.107384 -6.531093,4.051803 z m 20.783653,-2.460492 c -2.53619,0.0283 -5.44482,0.375913 -9.12918,2.485345 5.2742,-0.520546 8.34243,-1.573943 9.12918,-2.485345 z m -10.60144,2.294472 c -0.15734,-0.560075 -0.39299,-1.100573 -0.66299,-1.632485 2.86301,-2.052151 6.07606,-2.820829 9.56925,-2.56235 1.23752,0.428949 1.34062,0.673939 1.65457,0.95312 -4.74055,-0.02926 -8.01271,1.541195 -10.56083,3.241715 z m -6.98543,0.383622 c 2.21165,-2.35058 5.23074,-2.037019 5.23074,-2.037019 0.41735,0.658025 0.72661,1.326858 0.85409,2.01387 -2.43254,0.189636 -4.20717,0.08321 -6.08483,0.02315 z"
           sodipodi:nodetypes="ccccccccccccccccccccccccccccccccccccccccccccccccccc" /><path
           style="fill:#df2810;stroke-width:1.05833;stroke-linejoin:round;paint-order:stroke markers fill"
           d="m 103.87857,87.12363 c 2.83746,0.194361 9.1448,-0.773205 7.46112,-1.425743 l -0.34606,-0.164441 -7.10921,0.256062 -5.926739,-0.248132 c -0.122752,0.03643 0.522199,-0.221599 -0.335584,0.146041 -0.857783,0.367639 0.183024,1.21604 6.256473,1.436213 z"
           id="path7-3"
           sodipodi:nodetypes="ccccczc"
           inkscape:label="path7" /><path
           style="fill:#490400;stroke-width:1.05833;stroke-linejoin:round;paint-order:stroke markers fill"
           d="m 122.29123,70.424804 c -1.00347,22.209967 -35.424373,20.952141 -35.601181,0 l 1.073033,1.939269 c 1.906253,16.465187 29.942008,18.472214 33.418668,0.03162 z"
           id="path1-9"
           sodipodi:nodetypes="ccccc"
           inkscape:label="path1" /><path
           style="fill:#490400;stroke-width:1.05833;stroke-linejoin:round;paint-order:stroke markers fill"
           d="m 111.4682,65.207406 c 0.98116,0.840391 1.85857,0.648005 2.68901,0.443076 l 5.68948,-4.349649 c 0.24331,-0.193868 0.38148,-0.418402 0.15014,-0.750709 l -0.89251,-1.10521 c -0.3434,-0.342665 -0.64187,-0.221077 -0.92587,0.05005 z"
           id="path9-0"
           sodipodi:nodetypes="ccccccc"
           inkscape:label="path9" /></g></g></g></svg>
