<?xml version="1.0" encoding="UTF-8" standalone="no"?>
<!-- Created with Inkscape (http://www.inkscape.org/) -->

<svg
   width="1521.1732"
   height="264.56693"
   viewBox="0 0 1521.1732 264.56692"
   version="1.1"
   id="svg1"
   sodipodi:docname="ramenorant.svg"
   inkscape:version="1.3-alpha (95f74fb, 2023-03-31)"
   inkscape:export-filename="../src/main/resources/ramenorant.png"
   inkscape:export-xdpi="108.85715"
   inkscape:export-ydpi="108.85715"
   xml:space="preserve"
   xmlns:inkscape="http://www.inkscape.org/namespaces/inkscape"
   xmlns:sodipodi="http://sodipodi.sourceforge.net/DTD/sodipodi-0.dtd"
   xmlns="http://www.w3.org/2000/svg"
   xmlns:svg="http://www.w3.org/2000/svg"><sodipodi:namedview
     id="namedview1"
     pagecolor="#505050"
     bordercolor="#eeeeee"
     borderopacity="1"
     inkscape:showpageshadow="0"
     inkscape:pageopacity="0"
     inkscape:pagecheckerboard="0"
     inkscape:deskcolor="#d1d1d1"
     inkscape:document-units="px"
     showguides="true"
     showgrid="false"
     inkscape:zoom="0.42076521"
     inkscape:cx="793.79187"
     inkscape:cy="217.46095"
     inkscape:window-width="1512"
     inkscape:window-height="916"
     inkscape:window-x="0"
     inkscape:window-y="38"
     inkscape:window-maximized="1"
     inkscape:current-layer="layer1" /><defs
     id="defs1"><inkscape:path-effect
       effect="fillet_chamfer"
       id="path-effect4"
       is_visible="true"
       lpeversion="1"
       nodesatellites_param="F,0,0,1,0,1,0,1 @ F,0,0,1,0,1,0,1 @ F,0,0,1,0,1,0,1 @ F,0,0,1,0,1,0,1 @ F,0,0,1,0,1,0,1"
       radius="1"
       unit="px"
       method="auto"
       mode="F"
       chamfer_steps="1"
       flexible="false"
       use_knot_distance="true"
       apply_no_radius="true"
       apply_with_radius="true"
       only_selected="false"
       hide_knots="false" /><inkscape:path-effect
       effect="fillet_chamfer"
       id="path-effect3"
       is_visible="true"
       lpeversion="1"
       nodesatellites_param="F,0,0,1,0,0,0,1 @ F,0,0,1,0,0,0,1 @ F,0,0,1,0,0,0,1 @ F,0,0,1,0,0,0,1 @ F,0,0,1,0,0,0,1 @ F,0,0,1,0,0,0,1"
       radius="0"
       unit="px"
       method="auto"
       mode="F"
       chamfer_steps="1"
       flexible="false"
       use_knot_distance="true"
       apply_no_radius="true"
       apply_with_radius="true"
       only_selected="false"
       hide_knots="false" /></defs><g
     inkscape:label="Layer 1"
     inkscape:groupmode="layer"
     id="layer1"
     transform="translate(0,2.3933384)"><g
       aria-label="Ramenorant "
       id="text2"
       style="font-size:198.956px;font-family:'Nikkyou Sans';-inkscape-font-specification:'Nikkyou Sans';fill:#f9f9f9;stroke:#000000;stroke-width:3.77953;stroke-linejoin:round;stroke-dasharray:none;stroke-opacity:1;paint-order:stroke markers fill"><path
         d="m 317.8728,89.800674 h -42.06442 v 27.783896 h 26.3267 15.73772 z M 244.23577,62.30822 q 0.0971,-0.485732 0.38859,-1.165758 0.29144,-0.680025 1.2629,-1.748637 1.06861,-1.165757 2.33152,-1.165757 h 8.74318 64.991 23.50945 q 1.84578,0 2.91439,1.457197 1.06861,1.360051 1.06861,2.622955 v 82.7688 q 0,1.26291 -1.06861,2.7201 -1.06861,1.36005 -2.91439,1.36005 h -16.02917 l 22.24654,50.90476 q 0.68003,0.97147 0.19429,2.52581 -0.38858,1.55434 -2.33151,1.55434 h -24.48092 q -1.84578,0 -3.49727,-1.45719 -1.65149,-1.36006 -2.23437,-2.62296 l -22.34369,-50.90476 h -21.17793 v 50.90476 q 0,1.2629 -1.06861,2.62296 -1.06861,1.45719 -2.9144,1.45719 h -23.60659 q -1.94293,0 -3.01154,-1.45719 -0.97147,-1.36006 -0.97147,-2.62296 z"
         id="path1"
         style="stroke:#000000;stroke-width:3.77953;stroke-dasharray:none;stroke-opacity:1" /><path
         d="m 434.44859,62.502513 36.33278,137.559417 q 0.29144,1.2629 -0.38858,2.62296 -0.58288,1.45719 -2.52581,1.45719 h -24.48092 q -1.84578,0 -3.30298,-1.45719 -1.36005,-1.36006 -1.74863,-2.62296 l -3.98301,-15.0577 h -34.09841 l -3.98301,15.0577 q -0.38859,1.2629 -1.74864,2.62296 -1.36005,1.45719 -3.30298,1.45719 h -24.48091 q -1.84578,0 -2.52581,-1.45719 -0.68002,-1.36006 -0.38858,-2.62296 L 399.96159,62.502513 q 0.29144,-1.262904 1.65149,-2.622955 1.45719,-1.457197 3.40012,-1.457197 h 24.38377 q 1.94293,0 3.30298,1.457197 1.4572,1.360051 1.74864,2.622955 z m -8.45175,90.929107 -8.74318,-33.2241 -8.74318,33.2241 z"
         id="path2"
         style="stroke:#000000;stroke-width:3.77953;stroke-dasharray:none;stroke-opacity:1" /><path
         d="m 514.59443,58.228068 q 1.94293,0 3.59442,1.457197 1.65149,1.360051 2.23437,2.622955 l 29.14394,67.61395 29.24109,-67.61395 q 0.48573,-1.262904 2.13722,-2.622955 1.65149,-1.457197 3.59442,-1.457197 H 610.478 q 1.94293,0 3.01155,1.457197 1.06861,1.360051 1.06861,2.622955 v 137.75371 q 0,1.2629 -1.06861,2.62296 -1.06862,1.45719 -2.9144,1.45719 h -23.60659 q -1.94293,0 -3.01154,-1.45719 -0.97147,-1.36006 -0.97147,-2.62296 v -72.76271 l -25.35523,58.38503 q -0.58288,1.26291 -2.23437,2.62296 -1.55434,1.45719 -3.49727,1.45719 h -4.66303 q -1.84579,0 -3.49728,-1.45719 -1.65149,-1.36005 -2.23437,-2.62296 l -25.35523,-58.38503 v 72.76271 q 0,1.2629 -1.06861,2.62296 -0.97146,1.45719 -2.91439,1.45719 h -23.6066 q -1.84578,0 -2.91439,-1.45719 -1.06861,-1.36006 -1.06861,-2.62296 V 62.30822 q 0,-1.262904 1.06861,-2.622955 1.16575,-1.457197 3.01154,-1.457197 z"
         id="path3"
         style="stroke:#000000;stroke-width:3.77953;stroke-dasharray:none;stroke-opacity:1" /><path
         d="m 670.61169,172.56948 h 42.45302 27.20101 q 1.2629,0 2.62295,1.06861 1.4572,0.97146 1.4572,2.91439 v 23.6066 q 0,1.84578 -1.4572,2.91439 -1.36005,1.06861 -2.62295,1.06861 h -54.30488 -23.41231 -19.52644 q -1.94293,0 -3.01154,-1.45719 -0.97146,-1.36006 -0.97146,-2.62296 V 62.30822 q 0,-1.262904 0.97146,-2.622955 1.06861,-1.457197 3.01154,-1.457197 h 8.74319 34.19556 27.10387 27.20101 q 1.2629,0 2.62295,1.068611 1.4572,0.971465 1.4572,2.914394 v 23.606595 q 0,1.845784 -1.4572,2.914395 -1.36005,1.068611 -2.62295,1.068611 h -69.65403 v 25.452376 h 26.3267 27.20101 q 1.16576,0 2.52581,1.06861 1.4572,0.97147 1.4572,2.9144 v 23.60659 q 0,1.84579 -1.4572,2.9144 -1.36005,1.06861 -2.52581,1.06861 h -53.52771 z"
         id="path6"
         style="stroke:#000000;stroke-width:3.77953;stroke-dasharray:none;stroke-opacity:1" /><path
         d="m 801.46799,58.228068 q 1.94293,0 3.59442,1.457197 1.65149,1.360051 2.23437,2.622955 L 842.6581,141.6769 V 62.30822 q 0,-1.262904 1.06861,-2.622955 1.16576,-1.457197 3.01154,-1.457197 h 23.50945 q 1.94293,0 2.9144,1.457197 1.06861,1.360051 1.06861,2.622955 v 137.75371 q 0,1.2629 -1.06861,2.62296 -0.97147,1.45719 -2.9144,1.45719 h -3.59442 l -0.0971,0.0971 h -24.38377 q -1.94293,0 -3.59442,-1.4572 -1.65149,-1.36005 -2.23437,-2.62295 l -35.9442,-80.63158 v 80.53443 q 0,1.2629 -1.06861,2.62296 -0.97146,1.45719 -2.91439,1.45719 h -23.6066 q -1.84578,0 -2.91439,-1.45719 -1.06861,-1.36006 -1.06861,-2.62296 V 62.30822 q 0,-1.262904 1.06861,-2.622955 1.16575,-1.457197 3.01154,-1.457197 z"
         id="path7"
         style="stroke:#000000;stroke-width:3.77953;stroke-dasharray:none;stroke-opacity:1" /><path
         d="m 1013.6359,62.30822 v 137.75371 q 0,1.2629 -1.0686,2.62296 -1.0686,1.45719 -2.9144,1.45719 h -19.52642 q -11.65758,0 -39.53862,0 -27.88104,0 -39.24718,0 h -8.74318 q -1.94293,0 -3.01154,-1.45719 -0.97146,-1.36006 -0.97146,-2.62296 V 62.30822 q 0,-1.262904 0.97146,-2.622955 1.06861,-1.457197 3.01154,-1.457197 h 18.84642 q 11.65758,0 39.73291,0 28.07533,0 39.73287,0 h 8.7432 q 1.8458,0 2.9144,1.457197 1.0686,1.360051 1.0686,2.622955 z M 982.06332,172.56948 V 89.800674 H 930.1871 v 82.768806 z"
         id="path8"
         style="stroke:#000000;stroke-width:3.77953;stroke-dasharray:none;stroke-opacity:1" /><path
         d="m 1111.7538,89.800674 h -42.0644 v 27.783896 h 26.3267 15.7377 z m -73.637,-27.492454 q 0.097,-0.485732 0.3886,-1.165758 0.2914,-0.680025 1.2629,-1.748637 1.0686,-1.165757 2.3315,-1.165757 h 8.7432 64.991 23.5094 q 1.8458,0 2.9144,1.457197 1.0687,1.360051 1.0687,2.622955 v 82.7688 q 0,1.26291 -1.0687,2.7201 -1.0686,1.36005 -2.9144,1.36005 h -16.0291 l 22.2465,50.90476 q 0.68,0.97147 0.1943,2.52581 -0.3886,1.55434 -2.3315,1.55434 h -24.4809 q -1.8458,0 -3.4973,-1.45719 -1.6515,-1.36006 -2.2344,-2.62296 l -22.3436,-50.90476 h -21.178 v 50.90476 q 0,1.2629 -1.0686,2.62296 -1.0686,1.45719 -2.9144,1.45719 h -23.6066 q -1.9429,0 -3.0115,-1.45719 -0.9715,-1.36006 -0.9715,-2.62296 z"
         id="path9"
         style="stroke:#000000;stroke-width:3.77953;stroke-dasharray:none;stroke-opacity:1" /><path
         d="m 1228.3296,62.502513 36.3328,137.559417 q 0.2915,1.2629 -0.3886,2.62296 -0.5828,1.45719 -2.5258,1.45719 h -24.4809 q -1.8458,0 -3.303,-1.45719 -1.36,-1.36006 -1.7486,-2.62296 l -3.983,-15.0577 h -34.0984 l -3.983,15.0577 q -0.3886,1.2629 -1.7487,2.62296 -1.36,1.45719 -3.3029,1.45719 h -24.481 q -1.8457,0 -2.5258,-1.45719 -0.68,-1.36006 -0.3885,-2.62296 l 36.1384,-137.559417 q 0.2915,-1.262904 1.6515,-2.622955 1.4572,-1.457197 3.4002,-1.457197 h 24.3837 q 1.943,0 3.303,1.457197 1.4572,1.360051 1.7486,2.622955 z m -8.4517,90.929107 -8.7432,-33.2241 -8.7432,33.2241 z"
         id="path10"
         style="stroke:#000000;stroke-width:3.77953;stroke-dasharray:none;stroke-opacity:1" /><path
         d="m 1311.0984,58.228068 q 1.943,0 3.5944,1.457197 1.6515,1.360051 2.2344,2.622955 l 35.3613,79.36868 V 62.30822 q 0,-1.262904 1.0686,-2.622955 1.1658,-1.457197 3.0116,-1.457197 h 23.5094 q 1.943,0 2.9144,1.457197 1.0686,1.360051 1.0686,2.622955 v 137.75371 q 0,1.2629 -1.0686,2.62296 -0.9714,1.45719 -2.9144,1.45719 h -3.5944 l -0.097,0.0971 h -24.3838 q -1.9429,0 -3.5944,-1.4572 -1.6515,-1.36005 -2.2344,-2.62295 l -35.9442,-80.63158 v 80.53443 q 0,1.2629 -1.0686,2.62296 -0.9715,1.45719 -2.9144,1.45719 h -23.6066 q -1.8458,0 -2.9144,-1.45719 -1.0686,-1.36006 -1.0686,-2.62296 V 62.30822 q 0,-1.262904 1.0686,-2.622955 1.1658,-1.457197 3.0116,-1.457197 z"
         id="path11"
         style="stroke:#000000;stroke-width:3.77953;stroke-dasharray:none;stroke-opacity:1" /><path
         d="m 1447.9778,89.800674 h -35.6527 q -1.2629,0 -2.7201,-1.068611 -1.3601,-1.068611 -1.3601,-2.914395 V 62.211073 q 0,-1.942929 1.3601,-2.914394 1.4572,-1.068611 2.7201,-1.068611 h 51.3905 51.4876 q 1.2629,0 2.623,1.068611 1.4572,0.971465 1.4572,2.914394 v 23.606595 q 0,1.845784 -1.4572,2.914395 -1.3601,1.068611 -2.623,1.068611 h -35.6528 V 200.06193 q 0,1.2629 -1.0686,2.62296 -1.0686,1.45719 -2.9144,1.45719 h -23.6066 q -1.9429,0 -3.0115,-1.45719 -0.9715,-1.36006 -0.9715,-2.62296 z"
         id="path12"
         style="stroke:#000000;stroke-width:3.77953;stroke-dasharray:none;stroke-opacity:1" /></g><g
       id="g11"
       transform="matrix(3.8491684,0,0,3.8491684,-302.1892,-168.0208)"
       style="display:inline"><g
         id="g10"
         inkscape:label="g10"><path
           id="path4-8"
           style="display:inline;stroke:#ffffff;stroke-width:1;stroke-linejoin:round;stroke-dasharray:none;stroke-opacity:1;paint-order:stroke markers fill"
           d="m 104.28697,43.530344 c -0.82314,0.02675 -1.63776,0.256773 -2.37586,0.682915 L 81.549938,55.966271 c -1.574599,0.909105 -2.542278,2.589185 -2.542278,4.407379 v 11.753012 14.691264 l 25.44573,14.691264 25.44573,-14.691264 V 72.126662 60.37365 c 0,-1.818194 -0.96767,-3.498274 -2.54228,-4.407379 L 106.99567,44.213259 c -0.7873,-0.454552 -1.66363,-0.682915 -2.54228,-0.682915 -0.0549,0 -0.11154,-0.0018 -0.16642,0 z m 0.16642,2.949731 a 1.4691266,1.4691266 0 0 1 1.46913,1.469126 1.4691266,1.4691266 0 0 1 -1.46913,1.469127 1.4691266,1.4691266 0 0 1 -1.46912,-1.469127 1.4691266,1.4691266 0 0 1 1.46912,-1.469126 z"
           inkscape:label="path4" /><path
           style="display:inline;fill:#ff4354;fill-opacity:1;stroke:#ffffff;stroke-width:1;stroke-linejoin:round;stroke-dasharray:none;stroke-opacity:1;paint-order:stroke markers fill"
           d="m 79.00766,86.816691 v 9.602208 l 25.44573,14.844051 25.44573,-14.844051 v -9.600973 l -25.44573,14.691264 z"
           id="path5-0"
           sodipodi:nodetypes="ccccccc"
           inkscape:label="path5" /></g><g
         id="g9"
         style="display:inline"><path
           style="fill:#490400;fill-opacity:1;stroke-width:1.05833;stroke-linejoin:round;paint-order:stroke markers fill"
           d="m 96.372217,85.90852 c -0.0036,1.092736 2.299035,2.109615 8.145703,2.153274 6.31216,-0.109407 7.87081,-1.152369 8.0692,-2.09314 -0.13217,-2.036019 -4.96525,-1.54078 -8.1147,-1.952114 -4.500028,-0.145794 -7.92558,0.171912 -8.100203,1.89198 z"
           id="path6-2"
           sodipodi:nodetypes="ccccc"
           inkscape:label="path6" /><path
           style="fill:#f9f9f9;fill-opacity:1;stroke-width:1.05833;stroke-linejoin:round;paint-order:stroke markers fill"
           d="m 87.763082,72.364073 c 3.004205,19.162871 31.121778,17.290339 33.418668,0.03162 -6.7122,3.081651 -20.18683,6.086274 -33.418668,-0.03162 z"
           id="path2-4"
           sodipodi:nodetypes="ccc" /><path
           style="fill:#490400;fill-opacity:1;stroke-width:1.05833;stroke-linejoin:round;paint-order:stroke markers fill"
           d="m 106.70131,64.79745 c 0.69531,0.289497 1.36476,0.229935 2.03043,0.119415 l 4.31411,-9.046524 c 0.26071,-0.496415 0.33719,-0.830102 -0.066,-1.024495 l -1.24894,-0.550621 c -0.40316,-0.183609 -0.64591,-0.09872 -0.77904,0.188043 z"
           id="path8-8"
           sodipodi:nodetypes="ccccccc" /><path
           id="path95"
           style="fill:#490400;stroke-width:5.20782;stroke-linejoin:round;paint-order:stroke markers fill"
           transform="translate(1.2083334e-6)"
           d="m 122.29123,70.424805 a 17.800591,5.6712589 0 0 1 -17.80059,5.671259 17.800591,5.6712589 0 0 1 -17.800592,-5.671259 17.800591,5.6712589 0 0 1 17.800592,-5.671259 17.800591,5.6712589 0 0 1 17.80059,5.671259 z" /><path
           id="path94"
           style="fill:#ffffff;stroke-width:2.01719;stroke-linejoin:round;paint-order:stroke markers fill"
           transform="translate(1.2083334e-6)"
           d="m 121.35772,70.413177 a 16.872351,4.7626953 0 0 1 -16.87235,4.762696 16.872351,4.7626953 0 0 1 -16.872354,-4.762696 16.872351,4.7626953 0 0 1 16.872354,-4.762695 16.872351,4.7626953 0 0 1 16.87235,4.762695 z" /><path
           id="path93"
           style="fill:#490400;stroke-width:2.34638;stroke-linejoin:round;paint-order:stroke markers fill"
           transform="translate(1.2083334e-6)"
           d="m 120.35996,70.409897 a 15.838567,4.1423736 0 0 1 -15.83857,4.142373 15.838567,4.1423736 0 0 1 -15.838564,-4.142373 15.838567,4.1423736 0 0 1 15.838564,-4.142374 15.838567,4.1423736 0 0 1 15.83857,4.142374 z" /><path
           id="path92"
           style="display:inline;fill:#ffd404;fill-opacity:1;stroke-width:1.05833;stroke-linejoin:round;paint-order:stroke markers fill"
           d="m 97.901617,68.384629 c -0.130967,-0.278338 -0.31011,-0.52777 -0.516642,-0.760769 0.68246,-0.110457 1.326807,-0.157393 1.964376,-0.193032 -0.458503,0.26168 -0.655267,0.347088 -1.447734,0.953801 z m -2.312595,2.887511 c 0.594259,-1.163678 1.080697,-1.626526 1.58511,-2.206204 -0.178277,-0.554536 -0.550102,-0.963911 -1.041931,-1.283283 -0.667362,0.114472 -1.335248,0.228158 -1.972018,0.388517 0.896071,1.156523 1.160591,2.128201 1.428839,3.10097 z m -2.465209,1.131629 1.693624,0.375144 c -0.09068,-1.330603 -0.23755,-2.676448 -1.696653,-4.37815 -0.499354,0.147516 -0.998961,0.302228 -1.585944,0.522768 0.603204,0.767653 1.214204,1.521457 1.588973,3.480238 z M 92.12271,72.110155 c -2.242161,-0.771764 -3.681664,-1.604672 -1.520356,-2.799551 0.533499,0.536732 1.248737,1.378014 1.520356,2.799551 z m 3.740612,0.857655 c 0.63956,0.142985 1.113708,0.182587 1.584456,0.220064 0.813213,-2.075289 2.555272,-4.27997 6.225352,-4.816943 -0.41726,-0.273945 -0.94873,-0.55768 -1.99035,-0.885143 -3.190747,0.974435 -4.8963,2.961503 -5.819458,5.482022 z m 9.819598,-5.751577 c -0.76098,-0.01654 -1.46405,-0.01137 -2.10587,0.01677 0.53618,0.303962 1.04954,0.554686 1.67017,1.055715 z m 1.92621,0.08097 -0.91564,1.937732 2.20036,-1.873851 c -0.52561,-0.07841 -0.96677,-0.0977 -1.28472,-0.06388 z m 0.61042,2.86462 3.35175,-2.531721 c 1.06324,0.110731 1.83021,0.270839 2.65114,0.421954 -0.92446,0.144298 -2.93309,0.352969 -6.00289,2.109767 z m -9.799713,3.154661 c 0.732708,0.08195 1.37095,0.116673 1.997653,0.145624 1.26867,-1.661411 3.4303,-2.865227 5.77613,-2.922733 -0.35577,-0.495052 -0.75291,-0.940459 -1.24269,-1.274694 -3.7097,-0.06469 -5.660813,2.107384 -6.531093,4.051803 z m 20.783653,-2.460492 c -2.53619,0.0283 -5.44482,0.375913 -9.12918,2.485345 5.2742,-0.520546 8.34243,-1.573943 9.12918,-2.485345 z m -10.60144,2.294472 c -0.15734,-0.560075 -0.39299,-1.100573 -0.66299,-1.632485 2.86301,-2.052151 6.07606,-2.820829 9.56925,-2.56235 1.23752,0.428949 1.34062,0.673939 1.65457,0.95312 -4.74055,-0.02926 -8.01271,1.541195 -10.56083,3.241715 z m -6.98543,0.383622 c 2.21165,-2.35058 5.23074,-2.037019 5.23074,-2.037019 0.41735,0.658025 0.72661,1.326858 0.85409,2.01387 -2.43254,0.189636 -4.20717,0.08321 -6.08483,0.02315 z"
           sodipodi:nodetypes="ccccccccccccccccccccccccccccccccccccccccccccccccccc" /><path
           style="fill:#df2810;fill-opacity:1;stroke-width:1.05833;stroke-linejoin:round;paint-order:stroke markers fill"
           d="m 103.87857,87.12363 c 2.83746,0.194361 9.1448,-0.773205 7.46112,-1.425743 l -0.34606,-0.164441 -7.10921,0.256062 -5.926739,-0.248132 c -0.122752,0.03643 0.522199,-0.221599 -0.335584,0.146041 -0.857783,0.367639 0.183024,1.21604 6.256473,1.436213 z"
           id="path7-3"
           sodipodi:nodetypes="ccccczc"
           inkscape:label="path7" /><path
           style="fill:#490400;fill-opacity:1;stroke-width:1.05833;stroke-linejoin:round;paint-order:stroke markers fill"
           d="m 122.29123,70.424804 c -1.00347,22.209967 -35.424373,20.952141 -35.601181,0 l 1.073033,1.939269 c 1.906253,16.465187 29.942008,18.472214 33.418668,0.03162 z"
           id="path1-9"
           sodipodi:nodetypes="ccccc"
           inkscape:label="path1" /><path
           style="fill:#490400;fill-opacity:1;stroke-width:1.05833;stroke-linejoin:round;paint-order:stroke markers fill"
           d="m 111.4682,65.207406 c 0.98116,0.840391 1.85857,0.648005 2.68901,0.443076 l 5.68948,-4.349649 c 0.24331,-0.193868 0.38148,-0.418402 0.15014,-0.750709 l -0.89251,-1.10521 c -0.3434,-0.342665 -0.64187,-0.221077 -0.92587,0.05005 z"
           id="path9-0"
           sodipodi:nodetypes="ccccccc"
           inkscape:label="path9" /></g></g></g></svg>
