<?xml version="1.0" encoding="UTF-8" standalone="no"?>
<!-- Created with Inkscape (http://www.inkscape.org/) -->

<svg
   width="70mm"
   height="70mm"
   viewBox="0 0 69.999999 70"
   version="1.1"
   id="svg1"
   inkscape:version="1.3-alpha (95f74fb, 2023-03-31)"
   sodipodi:docname="icon.svg"
   inkscape:export-filename="../../../../../../Desktop/icon.png"
   inkscape:export-xdpi="145.14285"
   inkscape:export-ydpi="145.14285"
   xmlns:inkscape="http://www.inkscape.org/namespaces/inkscape"
   xmlns:sodipodi="http://sodipodi.sourceforge.net/DTD/sodipodi-0.dtd"
   xmlns="http://www.w3.org/2000/svg"
   xmlns:svg="http://www.w3.org/2000/svg">
  <sodipodi:namedview
     id="namedview1"
     pagecolor="#505050"
     bordercolor="#eeeeee"
     borderopacity="1"
     inkscape:showpageshadow="0"
     inkscape:pageopacity="0"
     inkscape:pagecheckerboard="0"
     inkscape:deskcolor="#d1d1d1"
     inkscape:document-units="mm"
     inkscape:zoom="1.5848829"
     inkscape:cx="120.51364"
     inkscape:cy="101.90027"
     inkscape:window-width="1512"
     inkscape:window-height="916"
     inkscape:window-x="0"
     inkscape:window-y="38"
     inkscape:window-maximized="1"
     inkscape:current-layer="layer1"
     showgrid="false"
     showguides="true" />
  <defs
     id="defs1" />
  <g
     inkscape:label="Layer 1"
     inkscape:groupmode="layer"
     id="layer1"
     transform="translate(-78.50766,-43.029415)">
    <g
       id="g11"
       transform="matrix(1.0184258,0,0,1.0184258,7.1296327,-0.79285018)">
      <g
         id="g10"
         inkscape:label="g10">
        <path
           id="path4"
           style="display:inline;stroke:#ffffff;stroke-width:1;stroke-linejoin:round;stroke-dasharray:none;stroke-opacity:1;paint-order:stroke markers fill"
           d="m 104.28697,43.530344 c -0.82314,0.02675 -1.63776,0.256773 -2.37586,0.682915 L 81.549938,55.966271 c -1.574599,0.909105 -2.542278,2.589185 -2.542278,4.407379 v 11.753012 14.691264 l 25.44573,14.691264 25.44573,-14.691264 V 72.126662 60.37365 c 0,-1.818194 -0.96767,-3.498274 -2.54228,-4.407379 L 106.99567,44.213259 c -0.7873,-0.454552 -1.66363,-0.682915 -2.54228,-0.682915 -0.0549,0 -0.11154,-0.0018 -0.16642,0 z m 0.16642,2.949731 a 1.4691266,1.4691266 0 0 1 1.46913,1.469126 1.4691266,1.4691266 0 0 1 -1.46913,1.469127 1.4691266,1.4691266 0 0 1 -1.46912,-1.469127 1.4691266,1.4691266 0 0 1 1.46912,-1.469126 z"
           inkscape:label="path4" />
        <path
           style="display:inline;fill:#ff4354;fill-opacity:1;stroke:#ffffff;stroke-width:1;stroke-linejoin:round;stroke-dasharray:none;stroke-opacity:1;paint-order:stroke markers fill"
           d="m 79.00766,86.816691 v 9.602208 l 25.44573,14.844051 25.44573,-14.844051 v -9.600973 l -25.44573,14.691264 z"
           id="path5"
           sodipodi:nodetypes="ccccccc"
           inkscape:label="path5" />
      </g>
      <g
         id="g9"
         style="display:inline">
        <path
           style="fill:#490400;fill-opacity:1;stroke-width:1.05833;stroke-linejoin:round;paint-order:stroke markers fill"
           d="m 96.372217,85.90852 c -0.0036,1.092736 2.299035,2.109615 8.145703,2.153274 6.31216,-0.109407 7.87081,-1.152369 8.0692,-2.09314 -0.13217,-2.036019 -4.96525,-1.54078 -8.1147,-1.952114 -4.500028,-0.145794 -7.92558,0.171912 -8.100203,1.89198 z"
           id="path6"
           sodipodi:nodetypes="ccccc"
           inkscape:label="path6" />
        <path
           style="fill:#f9f9f9;fill-opacity:1;stroke-width:1.05833;stroke-linejoin:round;paint-order:stroke markers fill"
           d="m 87.763082,72.364073 c 3.004205,19.162871 31.121778,17.290339 33.418668,0.03162 -6.7122,3.081651 -20.18683,6.086274 -33.418668,-0.03162 z"
           id="path2"
           sodipodi:nodetypes="ccc" />
        <path
           style="fill:#490400;fill-opacity:1;stroke-width:1.05833;stroke-linejoin:round;paint-order:stroke markers fill"
           d="m 106.70131,64.79745 c 0.69531,0.289497 1.36476,0.229935 2.03043,0.119415 l 4.31411,-9.046524 c 0.26071,-0.496415 0.33719,-0.830102 -0.066,-1.024495 l -1.24894,-0.550621 c -0.40316,-0.183609 -0.64591,-0.09872 -0.77904,0.188043 z"
           id="path8"
           sodipodi:nodetypes="ccccccc" />
        <path
           id="path95"
           style="fill:#490400;stroke-width:5.20782;stroke-linejoin:round;paint-order:stroke markers fill"
           transform="translate(1.2083334e-6)"
           d="m 122.29123,70.424805 a 17.800591,5.6712589 0 0 1 -17.80059,5.671259 17.800591,5.6712589 0 0 1 -17.800592,-5.671259 17.800591,5.6712589 0 0 1 17.800592,-5.671259 17.800591,5.6712589 0 0 1 17.80059,5.671259 z" />
        <path
           id="path94"
           style="fill:#ffffff;stroke-width:2.01719;stroke-linejoin:round;paint-order:stroke markers fill"
           transform="translate(1.2083334e-6)"
           d="m 121.35772,70.413177 a 16.872351,4.7626953 0 0 1 -16.87235,4.762696 16.872351,4.7626953 0 0 1 -16.872354,-4.762696 16.872351,4.7626953 0 0 1 16.872354,-4.762695 16.872351,4.7626953 0 0 1 16.87235,4.762695 z" />
        <path
           id="path93"
           style="fill:#490400;stroke-width:2.34638;stroke-linejoin:round;paint-order:stroke markers fill"
           transform="translate(1.2083334e-6)"
           d="m 120.35996,70.409897 a 15.838567,4.1423736 0 0 1 -15.83857,4.142373 15.838567,4.1423736 0 0 1 -15.838564,-4.142373 15.838567,4.1423736 0 0 1 15.838564,-4.142374 15.838567,4.1423736 0 0 1 15.83857,4.142374 z" />
        <path
           id="path92"
           style="display:inline;fill:#ffd404;fill-opacity:1;stroke-width:1.05833;stroke-linejoin:round;paint-order:stroke markers fill"
           d="m 97.901617,68.384629 c -0.130967,-0.278338 -0.31011,-0.52777 -0.516642,-0.760769 0.68246,-0.110457 1.326807,-0.157393 1.964376,-0.193032 -0.458503,0.26168 -0.655267,0.347088 -1.447734,0.953801 z m -2.312595,2.887511 c 0.594259,-1.163678 1.080697,-1.626526 1.58511,-2.206204 -0.178277,-0.554536 -0.550102,-0.963911 -1.041931,-1.283283 -0.667362,0.114472 -1.335248,0.228158 -1.972018,0.388517 0.896071,1.156523 1.160591,2.128201 1.428839,3.10097 z m -2.465209,1.131629 1.693624,0.375144 c -0.09068,-1.330603 -0.23755,-2.676448 -1.696653,-4.37815 -0.499354,0.147516 -0.998961,0.302228 -1.585944,0.522768 0.603204,0.767653 1.214204,1.521457 1.588973,3.480238 z M 92.12271,72.110155 c -2.242161,-0.771764 -3.681664,-1.604672 -1.520356,-2.799551 0.533499,0.536732 1.248737,1.378014 1.520356,2.799551 z m 3.740612,0.857655 c 0.63956,0.142985 1.113708,0.182587 1.584456,0.220064 0.813213,-2.075289 2.555272,-4.27997 6.225352,-4.816943 -0.41726,-0.273945 -0.94873,-0.55768 -1.99035,-0.885143 -3.190747,0.974435 -4.8963,2.961503 -5.819458,5.482022 z m 9.819598,-5.751577 c -0.76098,-0.01654 -1.46405,-0.01137 -2.10587,0.01677 0.53618,0.303962 1.04954,0.554686 1.67017,1.055715 z m 1.92621,0.08097 -0.91564,1.937732 2.20036,-1.873851 c -0.52561,-0.07841 -0.96677,-0.0977 -1.28472,-0.06388 z m 0.61042,2.86462 3.35175,-2.531721 c 1.06324,0.110731 1.83021,0.270839 2.65114,0.421954 -0.92446,0.144298 -2.93309,0.352969 -6.00289,2.109767 z m -9.799713,3.154661 c 0.732708,0.08195 1.37095,0.116673 1.997653,0.145624 1.26867,-1.661411 3.4303,-2.865227 5.77613,-2.922733 -0.35577,-0.495052 -0.75291,-0.940459 -1.24269,-1.274694 -3.7097,-0.06469 -5.660813,2.107384 -6.531093,4.051803 z m 20.783653,-2.460492 c -2.53619,0.0283 -5.44482,0.375913 -9.12918,2.485345 5.2742,-0.520546 8.34243,-1.573943 9.12918,-2.485345 z m -10.60144,2.294472 c -0.15734,-0.560075 -0.39299,-1.100573 -0.66299,-1.632485 2.86301,-2.052151 6.07606,-2.820829 9.56925,-2.56235 1.23752,0.428949 1.34062,0.673939 1.65457,0.95312 -4.74055,-0.02926 -8.01271,1.541195 -10.56083,3.241715 z m -6.98543,0.383622 c 2.21165,-2.35058 5.23074,-2.037019 5.23074,-2.037019 0.41735,0.658025 0.72661,1.326858 0.85409,2.01387 -2.43254,0.189636 -4.20717,0.08321 -6.08483,0.02315 z"
           sodipodi:nodetypes="ccccccccccccccccccccccccccccccccccccccccccccccccccc" />
        <path
           style="fill:#df2810;fill-opacity:1;stroke-width:1.05833;stroke-linejoin:round;paint-order:stroke markers fill"
           d="m 103.87857,87.12363 c 2.83746,0.194361 9.1448,-0.773205 7.46112,-1.425743 l -0.34606,-0.164441 -7.10921,0.256062 -5.926739,-0.248132 c -0.122752,0.03643 0.522199,-0.221599 -0.335584,0.146041 -0.857783,0.367639 0.183024,1.21604 6.256473,1.436213 z"
           id="path7"
           sodipodi:nodetypes="ccccczc"
           inkscape:label="path7" />
        <path
           style="fill:#490400;fill-opacity:1;stroke-width:1.05833;stroke-linejoin:round;paint-order:stroke markers fill"
           d="m 122.29123,70.424804 c -1.00347,22.209967 -35.424373,20.952141 -35.601181,0 l 1.073033,1.939269 c 1.906253,16.465187 29.942008,18.472214 33.418668,0.03162 z"
           id="path1"
           sodipodi:nodetypes="ccccc"
           inkscape:label="path1" />
        <path
           style="fill:#490400;fill-opacity:1;stroke-width:1.05833;stroke-linejoin:round;paint-order:stroke markers fill"
           d="m 111.4682,65.207406 c 0.98116,0.840391 1.85857,0.648005 2.68901,0.443076 l 5.68948,-4.349649 c 0.24331,-0.193868 0.38148,-0.418402 0.15014,-0.750709 l -0.89251,-1.10521 c -0.3434,-0.342665 -0.64187,-0.221077 -0.92587,0.05005 z"
           id="path9"
           sodipodi:nodetypes="ccccccc"
           inkscape:label="path9" />
      </g>
    </g>
  </g>
</svg>
