<?xml version="1.0" encoding="UTF-8" standalone="no"?>
<!-- Created with Inkscape (http://www.inkscape.org/) -->

<svg
   width="1280"
   height="640"
   viewBox="0 0 1280 640"
   version="1.1"
   id="svg1"
   sodipodi:docname="ramenorant_github.svg"
   inkscape:version="1.3-alpha (95f74fb, 2023-03-31)"
   inkscape:export-filename="ramenorant_github.png"
   inkscape:export-xdpi="96"
   inkscape:export-ydpi="96"
   xmlns:inkscape="http://www.inkscape.org/namespaces/inkscape"
   xmlns:sodipodi="http://sodipodi.sourceforge.net/DTD/sodipodi-0.dtd"
   xmlns:xlink="http://www.w3.org/1999/xlink"
   xmlns="http://www.w3.org/2000/svg"
   xmlns:svg="http://www.w3.org/2000/svg">
  <sodipodi:namedview
     id="namedview1"
     pagecolor="#505050"
     bordercolor="#eeeeee"
     borderopacity="1"
     inkscape:showpageshadow="0"
     inkscape:pageopacity="0"
     inkscape:pagecheckerboard="0"
     inkscape:deskcolor="#d1d1d1"
     inkscape:document-units="px"
     showguides="true"
     showgrid="false"
     inkscape:zoom="0.35741289"
     inkscape:cx="755.42883"
     inkscape:cy="451.85835"
     inkscape:window-width="1512"
     inkscape:window-height="916"
     inkscape:window-x="0"
     inkscape:window-y="38"
     inkscape:window-maximized="1"
     inkscape:current-layer="layer1" />
  <defs
     id="defs1">
    <linearGradient
       id="linearGradient12"
       inkscape:collect="always">
      <stop
         style="stop-color:#dc1c13;stop-opacity:1;"
         offset="0"
         id="stop12" />
      <stop
         style="stop-color:#ea4c46;stop-opacity:1;"
         offset="0.5"
         id="stop14" />
      <stop
         style="stop-color:#f0747d;stop-opacity:1;"
         offset="0.75"
         id="stop15" />
      <stop
         style="stop-color:#f1949b;stop-opacity:1;"
         offset="0.875"
         id="stop16" />
      <stop
         style="stop-color:#f6bdc0;stop-opacity:1;"
         offset="1"
         id="stop13" />
    </linearGradient>
    <inkscape:path-effect
       effect="fillet_chamfer"
       id="path-effect4"
       is_visible="true"
       lpeversion="1"
       nodesatellites_param="F,0,0,1,0,1,0,1 @ F,0,0,1,0,1,0,1 @ F,0,0,1,0,1,0,1 @ F,0,0,1,0,1,0,1 @ F,0,0,1,0,1,0,1"
       radius="1"
       unit="px"
       method="auto"
       mode="F"
       chamfer_steps="1"
       flexible="false"
       use_knot_distance="true"
       apply_no_radius="true"
       apply_with_radius="true"
       only_selected="false"
       hide_knots="false" />
    <inkscape:path-effect
       effect="fillet_chamfer"
       id="path-effect3"
       is_visible="true"
       lpeversion="1"
       nodesatellites_param="F,0,0,1,0,0,0,1 @ F,0,0,1,0,0,0,1 @ F,0,0,1,0,0,0,1 @ F,0,0,1,0,0,0,1 @ F,0,0,1,0,0,0,1 @ F,0,0,1,0,0,0,1"
       radius="0"
       unit="px"
       method="auto"
       mode="F"
       chamfer_steps="1"
       flexible="false"
       use_knot_distance="true"
       apply_no_radius="true"
       apply_with_radius="true"
       only_selected="false"
       hide_knots="false" />
    <linearGradient
       inkscape:collect="always"
       xlink:href="#linearGradient12"
       id="linearGradient13"
       x1="199.33287"
       y1="306.4743"
       x2="436.04065"
       y2="189.36623"
       gradientUnits="userSpaceOnUse"
       gradientTransform="matrix(5.4075112,0,0,5.4650378,-1077.8947,-1034.8936)" />
  </defs>
  <g
     inkscape:label="Layer 1"
     inkscape:groupmode="layer"
     id="layer1">
    <path
       id="rect11"
       style="fill:url(#linearGradient13);stroke-width:20.5462;stroke-linejoin:round;paint-order:stroke markers fill"
       d="M 0,0 H 1280 V 640 H 0 Z" />
    <g
       aria-label="Ramenorant
"
       id="text2"
       style="font-size:171.642px;font-family:'Nikkyou Sans';-inkscape-font-specification:'Nikkyou Sans';fill:#f9f9f9;stroke:#000000;stroke-width:4;stroke-linejoin:round;paint-order:stroke markers fill"
       inkscape:label="text2">
      <path
         d="m 153.52736,450.91702 h -36.28954 v 23.96953 h 22.71239 13.57715 z M 89.999711,427.19891 q 0.08381,-0.41905 0.335238,-1.00572 0.251429,-0.58666 1.089524,-1.50857 0.921906,-1.00571 2.01143,-1.00571 h 7.542857 56.06861 20.28191 q 1.59238,0 2.51429,1.25714 0.9219,1.17334 0.9219,2.26286 v 71.40575 q 0,1.08953 -0.9219,2.34667 -0.92191,1.17333 -2.51429,1.17333 H 163.5007 l 19.19239,43.91622 q 0.58667,0.83809 0.16762,2.17905 -0.33523,1.34095 -2.01143,1.34095 h -21.12001 q -1.59238,0 -3.01714,-1.25714 -1.42476,-1.17334 -1.92762,-2.26286 l -19.2762,-43.91622 h -18.27049 v 43.91622 q 0,1.08952 -0.9219,2.26286 -0.92191,1.25714 -2.51429,1.25714 H 93.435903 q -1.676191,0 -2.598097,-1.25714 -0.838095,-1.17334 -0.838095,-2.26286 z"
         id="path2" />
      <path
         d="m 254.09884,427.36653 31.34478,118.67435 q 0.25143,1.08952 -0.33523,2.26286 -0.50286,1.25714 -2.17905,1.25714 h -21.12002 q -1.59238,0 -2.84952,-1.25714 -1.17333,-1.17334 -1.50857,-2.26286 l -3.4362,-12.99048 h -29.41715 l -3.4362,12.99048 q -0.33523,1.08952 -1.50857,2.26286 -1.17333,1.25714 -2.84952,1.25714 h -21.12002 q -1.59238,0 -2.17904,-1.25714 -0.58667,-1.17334 -0.33524,-2.26286 l 31.17716,-118.67435 q 0.25143,-1.08953 1.42476,-2.26286 1.25714,-1.25714 2.93333,-1.25714 h 21.03621 q 1.67619,0 2.84952,1.25714 1.25715,1.17333 1.50857,2.26286 z m -7.29143,78.44576 -7.54286,-28.66288 -7.54286,28.66288 z"
         id="path3" />
      <path
         d="m 323.24175,423.67891 q 1.67619,0 3.10095,1.25714 1.42476,1.17334 1.92762,2.26286 l 25.14287,58.33146 25.22668,-58.33146 q 0.41905,-1.08952 1.84381,-2.26286 1.42477,-1.25714 3.10096,-1.25714 h 22.37715 q 1.67619,0 2.5981,1.25714 0.9219,1.17334 0.9219,2.26286 v 118.84197 q 0,1.08952 -0.9219,2.26286 -0.92191,1.25714 -2.51429,1.25714 h -20.36572 q -1.6762,0 -2.5981,-1.25714 -0.8381,-1.17334 -0.8381,-2.26286 v -62.77337 l -21.87429,50.36955 q -0.50286,1.08953 -1.92762,2.26286 -1.34096,1.25714 -3.01715,1.25714 h -4.02286 q -1.59238,0 -3.01714,-1.25714 -1.42477,-1.17333 -1.92762,-2.26286 l -21.8743,-50.36955 v 62.77337 q 0,1.08952 -0.92191,2.26286 -0.83809,1.25714 -2.51428,1.25714 h -20.36573 q -1.59238,0 -2.51428,-1.25714 -0.92191,-1.17334 -0.92191,-2.26286 V 427.19891 q 0,-1.08952 0.92191,-2.26286 1.00571,-1.25714 2.59809,-1.25714 z"
         id="path6" />
      <path
         d="m 457.8399,522.32277 h 36.62478 23.46668 q 1.08953,0 2.26286,0.92191 1.25715,0.83809 1.25715,2.51428 v 20.36573 q 0,1.59238 -1.25715,2.51429 -1.17333,0.9219 -2.26286,0.9219 h -46.84955 -20.1981 -16.84573 q -1.67619,0 -2.59809,-1.25714 -0.8381,-1.17334 -0.8381,-2.26286 V 427.19891 q 0,-1.08952 0.8381,-2.26286 0.9219,-1.25714 2.59809,-1.25714 h 7.54287 29.50096 23.38287 23.46668 q 1.08953,0 2.26286,0.9219 1.25715,0.8381 1.25715,2.51429 v 20.36573 q 0,1.59238 -1.25715,2.51428 -1.17333,0.92191 -2.26286,0.92191 H 457.8399 v 21.95811 h 22.7124 23.46667 q 1.00572,0 2.17905,0.9219 1.25715,0.8381 1.25715,2.51429 v 20.36572 q 0,1.59238 -1.25715,2.51429 -1.17333,0.92191 -2.17905,0.92191 H 457.8399 Z"
         id="path7" />
      <path
         d="m 570.73138,423.67891 q 1.67619,0 3.10096,1.25714 1.42476,1.17334 1.92762,2.26286 l 30.50668,68.47242 v -68.47242 q 0,-1.08952 0.9219,-2.26286 1.00572,-1.25714 2.5981,-1.25714 h 20.28192 q 1.67619,0 2.51428,1.25714 0.92191,1.17334 0.92191,2.26286 v 118.84197 q 0,1.08952 -0.92191,2.26286 -0.83809,1.25714 -2.51428,1.25714 h -3.10096 l -0.0838,0.0838 h -21.0362 q -1.67619,0 -3.10095,-1.25714 -1.42477,-1.17334 -1.92762,-2.26286 l -31.00954,-69.56194 v 69.47813 q 0,1.08952 -0.92191,2.26286 -0.83809,1.25714 -2.51429,1.25714 h -20.36572 q -1.59238,0 -2.51429,-1.25714 -0.9219,-1.17334 -0.9219,-2.26286 V 427.19891 q 0,-1.08952 0.9219,-2.26286 1.00572,-1.25714 2.5981,-1.25714 z"
         id="path8" />
      <path
         d="m 753.7715,427.19891 v 118.84197 q 0,1.08952 -0.9219,2.26286 -0.92191,1.25714 -2.51429,1.25714 h -16.84573 q -10.05714,0 -34.11049,0 -24.05335,0 -33.85907,0 h -7.54286 q -1.67619,0 -2.59809,-1.25714 -0.8381,-1.17334 -0.8381,-2.26286 V 427.19891 q 0,-1.08952 0.8381,-2.26286 0.9219,-1.25714 2.59809,-1.25714 h 16.25906 q 10.05715,0 34.27811,0 24.22097,0 34.27812,0 h 7.54286 q 1.59238,0 2.51429,1.25714 0.9219,1.17334 0.9219,2.26286 z m -27.23811,95.12386 v -71.40575 h -44.75431 v 71.40575 z"
         id="path9" />
      <path
         d="m 838.41915,450.91702 h -36.28954 v 23.96953 H 824.842 838.41915 Z M 774.8915,427.19891 q 0.0838,-0.41905 0.33523,-1.00572 0.25143,-0.58666 1.08953,-1.50857 0.9219,-1.00571 2.01143,-1.00571 h 7.54286 56.0686 20.28192 q 1.59238,0 2.51428,1.25714 0.92191,1.17334 0.92191,2.26286 v 71.40575 q 0,1.08953 -0.92191,2.34667 -0.9219,1.17333 -2.51428,1.17333 h -13.82858 l 19.19239,43.91622 q 0.58667,0.83809 0.16762,2.17905 -0.33524,1.34095 -2.01143,1.34095 h -21.12001 q -1.59238,0 -3.01715,-1.25714 -1.42476,-1.17334 -1.92762,-2.26286 l -19.2762,-43.91622 h -18.27048 v 43.91622 q 0,1.08952 -0.92191,2.26286 -0.92191,1.25714 -2.51429,1.25714 h -20.36572 q -1.67619,0 -2.5981,-1.25714 -0.83809,-1.17334 -0.83809,-2.26286 z"
         id="path10" />
      <path
         d="m 938.99065,427.36653 31.34478,118.67435 q 0.25143,1.08952 -0.33524,2.26286 -0.50285,1.25714 -2.17905,1.25714 h -21.12001 q -1.59238,0 -2.84952,-1.25714 -1.17334,-1.17334 -1.50858,-2.26286 l -3.43619,-12.99048 h -29.41716 l -3.43619,12.99048 q -0.33524,1.08952 -1.50857,2.26286 -1.17334,1.25714 -2.84953,1.25714 h -21.12001 q -1.59238,0 -2.17905,-1.25714 -0.58666,-1.17334 -0.33523,-2.26286 l 31.17715,-118.67435 q 0.25143,-1.08953 1.42477,-2.26286 1.25714,-1.25714 2.93333,-1.25714 h 21.0362 q 1.6762,0 2.84953,1.25714 1.25714,1.17333 1.50857,2.26286 z m -7.29143,78.44576 -7.54286,-28.66288 -7.54286,28.66288 z"
         id="path11" />
      <path
         d="m 1010.3964,423.67891 q 1.6762,0 3.101,1.25714 1.4247,1.17334 1.9276,2.26286 l 30.5067,68.47242 v -68.47242 q 0,-1.08952 0.9219,-2.26286 1.0057,-1.25714 2.5981,-1.25714 h 20.2819 q 1.6762,0 2.5143,1.25714 0.9219,1.17334 0.9219,2.26286 v 118.84197 q 0,1.08952 -0.9219,2.26286 -0.8381,1.25714 -2.5143,1.25714 h -3.101 l -0.084,0.0838 h -21.0362 q -1.6762,0 -3.1009,-1.25714 -1.4248,-1.17334 -1.9276,-2.26286 l -31.0096,-69.56194 v 69.47813 q 0,1.08952 -0.9219,2.26286 -0.8381,1.25714 -2.5143,1.25714 h -20.3657 q -1.59238,0 -2.51429,-1.25714 -0.92191,-1.17334 -0.92191,-2.26286 V 427.19891 q 0,-1.08952 0.92191,-2.26286 1.00572,-1.25714 2.5981,-1.25714 z"
         id="path12" />
      <path
         d="m 1128.4841,450.91702 h -30.7581 q -1.0896,0 -2.3467,-0.92191 -1.1734,-0.9219 -1.1734,-2.51428 V 427.1151 q 0,-1.67619 1.1734,-2.51429 1.2571,-0.9219 2.3467,-0.9219 h 44.3352 44.4191 q 1.0895,0 2.2628,0.9219 1.2572,0.8381 1.2572,2.51429 v 20.36573 q 0,1.59238 -1.2572,2.51428 -1.1733,0.92191 -2.2628,0.92191 h -30.7581 v 95.12386 q 0,1.08952 -0.9219,2.26286 -0.9219,1.25714 -2.5143,1.25714 h -20.3657 q -1.6762,0 -2.5981,-1.25714 -0.8381,-1.17334 -0.8381,-2.26286 z"
         id="path13" />
    </g>
    <g
       id="g1"
       transform="translate(0,73.001818)"
       inkscape:label="g1">
      <path
         id="path4"
         style="stroke:#ffffff;stroke-width:3.77953;stroke-linejoin:round;stroke-dasharray:none;stroke-opacity:1;paint-order:stroke markers fill"
         d="m 639.37099,1.8932386 c -3.11108,0.1011147 -6.18996,0.9704782 -8.9796,2.5810935 L 553.43577,48.895167 c -5.95124,3.435988 -9.60861,9.785896 -9.60861,16.657812 v 44.420831 55.52604 L 640,221.0259 736.17284,165.49985 V 109.97381 65.552979 c 0,-6.871916 -3.65735,-13.221824 -9.6086,-16.657812 L 649.60861,4.4743321 C 646.633,2.7563424 643.32088,1.8932386 640,1.8932386 c -0.20757,0 -0.42159,-0.00674 -0.62901,0 z M 640,13.041827 a 5.5526044,5.5526044 0 0 1 5.55261,5.552604 A 5.5526044,5.5526044 0 0 1 640,24.147036 5.5526044,5.5526044 0 0 1 634.4474,18.594431 5.5526044,5.5526044 0 0 1 640,13.041827 Z"
         inkscape:label="path4" />
      <path
         style="fill:#ff4354;fill-opacity:1;stroke:#ffffff;stroke-width:3.77953;stroke-linejoin:round;stroke-dasharray:none;stroke-opacity:1;paint-order:stroke markers fill"
         d="m 543.82716,165.49518 v 36.29181 L 640,257.89051 736.17284,201.78699 V 165.49985 L 640,221.0259 Z"
         id="path5"
         sodipodi:nodetypes="ccccccc" />
      <g
         aria-label="R"
         id="text1"
         style="font-size:156.303px;font-family:'Nikkyou Sans';-inkscape-font-specification:'Nikkyou Sans';fill:#f9f9f9;stroke-width:0.586136;stroke-linejoin:round;paint-order:stroke markers fill">
        <path
           d="M 655.48973,78.945836 H 622.44325 V 100.7733 h 20.68267 12.36381 z m -57.85042,-21.59851 q 0.0763,-0.381599 0.30528,-0.915838 0.22896,-0.534238 0.99215,-1.373756 0.83952,-0.915838 1.83168,-0.915838 h 6.86878 51.05796 18.4694 q 1.45008,0 2.2896,1.144797 0.83951,1.068478 0.83951,2.060635 v 65.024484 q 0,0.99216 -0.83951,2.13696 -0.83952,1.06848 -2.2896,1.06848 h -12.59277 l 17.47724,39.99158 q 0.53424,0.7632 0.15264,1.98432 -0.30528,1.22112 -1.83168,1.22112 H 661.1374 q -1.45008,0 -2.74751,-1.1448 -1.29744,-1.06848 -1.75536,-2.06064 l -17.55356,-39.99158 h -16.63772 v 39.99158 q 0,0.99216 -0.83952,2.06064 -0.83952,1.1448 -2.28959,1.1448 h -18.54572 q -1.5264,0 -2.36591,-1.1448 -0.7632,-1.06848 -0.7632,-2.06064 z"
           id="path1" />
      </g>
    </g>
  </g>
</svg>
