<?xml version="1.0" encoding="UTF-8" standalone="no"?>
<!-- Created with Inkscape (http://www.inkscape.org/) -->

<svg
   xml:space="preserve"
   id="svg5"
   version="1.1"
   viewBox="0 0 18.45001 18.450007"
   height="18.450006mm"
   width="18.45001mm"
   inkscape:version="1.2.2 (732a01da63, 2022-12-09)"
   sodipodi:docname="settings_icon.svg"
   xmlns:inkscape="http://www.inkscape.org/namespaces/inkscape"
   xmlns:sodipodi="http://sodipodi.sourceforge.net/DTD/sodipodi-0.dtd"
   xmlns="http://www.w3.org/2000/svg"
   xmlns:svg="http://www.w3.org/2000/svg"><sodipodi:namedview
     id="namedview7"
     pagecolor="#505050"
     bordercolor="#eeeeee"
     borderopacity="1"
     inkscape:showpageshadow="0"
     inkscape:pageopacity="0"
     inkscape:pagecheckerboard="0"
     inkscape:deskcolor="#505050"
     inkscape:document-units="mm"
     showgrid="false"
     inkscape:zoom="7.319248"
     inkscape:cx="-14.823927"
     inkscape:cy="54.240545"
     inkscape:window-width="2560"
     inkscape:window-height="1369"
     inkscape:window-x="-8"
     inkscape:window-y="-8"
     inkscape:window-maximized="1"
     inkscape:current-layer="layer1" /><defs
     id="defs2" /><g
     inkscape:label="Layer 1"
     inkscape:groupmode="layer"
     id="layer1"
     transform="translate(-35.852089,-63.589897)"><path
       id="rect358"
       style="fill:#ececec;stroke-width:0.253588"
       transform="rotate(-135)"
       d="m -85.236061,-21.487423 h 3.747666 v 3.747666 h -3.747666 z" /><path
       id="path412"
       style="color:#000000;fill:#ffffff;-inkscape-stroke:none"
       d="M 43.886224 63.589897 L 43.886224 65.771676 C 42.812706 65.952757 41.819733 66.37463 40.964438 66.979354 L 39.415179 65.430095 L 37.731561 67.11423 L 39.273586 68.656254 C 38.651319 69.521776 38.217752 70.531312 38.033351 71.624032 L 35.852089 71.624032 L 35.852089 74.005282 L 38.033351 74.005282 C 38.217785 75.09802 38.651351 76.107848 39.273586 76.973576 L 37.731561 78.515601 L 39.415179 80.199736 L 40.963922 78.650993 C 41.819295 79.256113 42.812561 79.67798 43.886224 79.859188 L 43.886224 82.039934 L 46.267474 82.039934 L 46.267474 79.858671 C 47.340973 79.677289 48.334364 79.255575 49.189776 78.650476 L 50.738519 80.199736 L 52.422137 78.515601 L 50.880112 76.973576 C 51.502618 76.107848 51.936325 75.09802 52.120863 74.005282 L 54.302126 74.005282 L 54.302126 71.624032 L 52.120863 71.624032 C 51.936382 70.531454 51.502519 69.522217 50.880112 68.656771 L 52.422654 67.11423 L 50.739036 65.430095 L 49.189776 66.979354 C 48.334418 66.374611 47.340873 65.953455 46.267474 65.772193 L 46.267474 63.589897 L 43.886224 63.589897 z M 45.076332 67.25789 C 48.15436 67.25789 50.632583 69.736629 50.632582 72.814657 C 50.632583 75.892685 48.15436 78.370907 45.076332 78.370907 C 41.998304 78.370907 39.521632 75.892685 39.521632 72.814657 C 39.521632 69.736629 41.998304 67.25789 45.076332 67.25789 z " /></g></svg>
